<svg width="253" height="74" viewBox="0 0 253 74" fill="none" xmlns="http://www.w3.org/2000/svg">
<g clip-path="url(#clip0_0_1902)">
<path d="M247.691 35.901C246.661 35.901 245.748 35.604 244.952 35.01C244.151 34.4159 243.522 33.612 243.066 32.5942C242.609 31.5764 242.381 30.4359 242.381 29.1646C242.381 27.8934 242.609 26.7172 243.066 25.7113C243.522 24.7093 244.151 23.9133 244.952 23.3193C245.748 22.7252 246.665 22.4282 247.691 22.4282C248.716 22.4282 249.633 22.7252 250.43 23.3193C251.226 23.9133 251.855 24.7093 252.316 25.7113C252.772 26.7132 253 27.8657 253 29.1646C253 30.4636 252.772 31.5804 252.316 32.5942C251.859 33.612 251.23 34.4159 250.43 35.01C249.629 35.604 248.716 35.901 247.691 35.901ZM247.691 35.0535C248.604 35.0535 249.388 34.7842 250.045 34.2496C250.702 33.715 251.214 33.0021 251.587 32.1111C251.955 31.22 252.143 30.2418 252.143 29.1686C252.143 28.0954 251.955 27.1132 251.587 26.2261C251.214 25.3351 250.702 24.6222 250.045 24.0876C249.388 23.5529 248.604 23.2836 247.691 23.2836C246.778 23.2836 246.029 23.5529 245.356 24.0876C244.683 24.6222 244.163 25.3351 243.794 26.2261C243.422 27.1172 243.238 28.0954 243.238 29.1686C243.238 30.2418 243.422 31.224 243.794 32.1111C244.167 33.0021 244.687 33.715 245.356 34.2496C246.025 34.7882 246.806 35.0535 247.691 35.0535ZM245.076 25.438C245.504 25.3826 245.941 25.3311 246.381 25.2915C246.822 25.2479 247.274 25.2281 247.731 25.2281C248.728 25.2281 249.472 25.438 249.957 25.8618C250.442 26.2855 250.686 26.836 250.686 27.5132C250.686 28.0795 250.538 28.5587 250.237 28.9547C249.937 29.3508 249.573 29.6399 249.144 29.822C248.716 30.0042 248.287 30.0992 247.859 30.0992C247.659 30.0992 247.45 30.0715 247.238 30.0161C247.026 29.9606 246.83 29.8735 246.661 29.7626V29.5092C246.834 29.5369 246.99 29.5646 247.134 29.5923C247.278 29.6201 247.406 29.6359 247.518 29.6359C247.975 29.6359 248.315 29.4735 248.547 29.1488C248.776 28.824 248.892 28.3528 248.892 27.731C248.892 27.1092 248.8 26.5746 248.612 26.2063C248.427 25.838 248.175 25.6558 247.863 25.6558C247.691 25.6558 247.554 25.739 247.454 25.9093C247.354 26.0796 247.306 26.3172 247.306 26.6301V31.8378C247.306 32.0913 247.35 32.3091 247.434 32.4952C247.518 32.6774 247.663 32.812 247.863 32.8992V33.0259H245.08V32.8992C245.28 32.816 245.428 32.6813 245.528 32.4952C245.628 32.313 245.676 32.0913 245.676 31.8378V26.6301C245.676 26.3766 245.624 26.1588 245.528 25.9727C245.428 25.7905 245.28 25.6558 245.08 25.5687V25.442L245.076 25.438ZM247.346 29.8022H249.144C249.372 30.424 249.645 31.0893 249.957 31.7942C250.269 32.4992 250.614 33.1486 250.986 33.7427C250.185 33.4338 249.46 32.9467 248.804 32.2813C248.147 31.62 247.663 30.7923 247.346 29.8022Z" fill="#282828"/>
<path d="M81.8639 51.6193L80.2102 54.0747H54.979V9.41089H62.2508V51.6193H81.8639Z" fill="#282828"/>
<path d="M109.334 53.6986H103.728L100.472 44.1662H87.5621L84.1384 53.6986H81.936L93.4604 22.4363H98.1855L109.338 53.6986H109.334ZM99.8834 42.4475L94.2053 25.6639L88.1788 42.4475H99.8874H99.8834Z" fill="#282828"/>
<path d="M146.429 22.4165L135.193 53.6788H132.883L126.312 35.3784L119.737 53.6788H117.426L106.202 22.4165H111.376L119.981 47.5008L125.339 32.6696L121.659 22.4165H126.832L135.438 47.5008L144.499 22.4165H146.425H146.429Z" fill="#282828"/>
<path d="M185.872 9.01099V53.6748H178.6V29.5331H157.725V53.6748H150.454V9.01099H157.725V27.05H178.6V9.01099H185.872Z" fill="#282828"/>
<path d="M211.532 51.96L210.374 53.6788H192.371V22.4165H211.187L210.034 24.1551H197.465V34.0993H209.309V35.7349H197.465V51.96H211.536H211.532Z" fill="#282828"/>
<path d="M229.399 42.6455L238.809 53.659H233.267L224.702 43.2396H219.921V53.659H214.831V22.3967L222.936 22.4165C229.387 22.4165 240.07 24.1353 240.07 32.9231C240.07 39.4971 233.667 42.0079 229.399 42.6495V42.6455ZM234.636 32.9112C234.636 26.0124 228.846 24.1353 222.936 24.1353H219.921V41.5248H222.591C228.33 41.5248 234.636 39.7347 234.636 32.9152V32.9112Z" fill="#282828"/>
<path d="M22.7243 8.61102C33.3357 8.61102 41.973 17.1493 41.973 27.648V52.661H3.47558V27.648C3.47558 17.1533 12.1089 8.61102 22.7243 8.61102ZM22.7243 5.75171C10.5152 5.75171 0.584473 15.5732 0.584473 27.648V55.5203H44.8642V27.648C44.8642 15.5732 34.9335 5.75171 22.7243 5.75171Z" fill="#1E1E1E"/>
<path d="M4.04004 52.1064V27.6399C4.04004 17.4502 12.4211 9.16138 22.7242 9.16138C33.0272 9.16138 41.4083 17.4502 41.4083 27.6399V52.1064H4.04004Z" fill="#F26E79" stroke="#F26E79" stroke-width="8.82429" stroke-miterlimit="10"/>
<path d="M22.7242 15.5454C29.5155 15.5454 35.0294 20.9987 35.0294 27.7153V45.7226H10.4189V27.7153C10.4189 20.9987 15.9329 15.5454 22.7242 15.5454Z" fill="#F26E79" stroke="#1E1E1E" stroke-width="11.36" stroke-miterlimit="10"/>
<path d="M22.7243 15.3948C29.5837 15.3948 35.1537 20.9035 35.1537 27.6874V45.8769H10.2949V27.6874C10.2949 20.9035 15.8649 15.3948 22.7243 15.3948Z" fill="#1E1E1E" stroke="#1E1E1E" stroke-width="18.3586" stroke-miterlimit="10"/>
<mask id="mask0_0_1902" style="mask-type:luminance" maskUnits="userSpaceOnUse" x="10" y="15" width="32" height="32">
<path d="M29.1951 15.1611H25.7073C18.7358 15.1611 10.1025 20.7491 10.1025 27.6439V46.1106H41.8167V27.6439C41.8167 20.7491 36.1666 15.1611 29.1951 15.1611Z" fill="white"/>
</mask>
<g mask="url(#mask0_0_1902)">
<path d="M8.80128 48.859C6.81515 45.6552 4.85303 42.487 2.85889 39.2673C7.30768 36.9783 11.7204 34.7051 16.1892 32.4002C16.1572 32.5863 16.1412 32.7091 16.1172 32.8279C15.969 33.5962 15.8168 34.3605 15.6767 35.1328C15.6487 35.2951 15.6527 35.4694 15.6767 35.6318C15.6887 35.707 15.8008 35.8298 15.8529 35.8258C15.945 35.8179 16.0371 35.7308 16.1092 35.6595C16.1412 35.6278 16.1292 35.5526 16.1372 35.4971C16.2453 34.808 16.3494 34.1189 16.4575 33.4338C16.5937 32.5546 16.938 31.7428 17.2664 30.923C17.6388 29.9884 18.0032 29.0459 18.4357 28.139C18.8321 27.3073 19.3046 26.5113 19.7731 25.7113C20.4018 24.6341 21.4509 24.0876 22.5521 23.6124C23.2769 23.2995 23.9976 22.9827 24.7224 22.6738C24.8466 22.6223 24.9907 22.5946 25.1229 22.5946C25.3471 22.5946 25.5713 22.6382 25.7996 22.6461C26.8327 22.6857 27.7377 22.353 28.5265 21.6996C28.6426 21.6045 28.7468 21.5253 28.9029 21.5847C29.0871 21.656 29.0551 21.8184 29.0311 21.9451C28.963 22.2976 28.9109 22.6659 28.7668 22.9906C28.5866 23.3985 28.3383 23.7787 28.0901 24.151C27.6616 24.7886 26.9809 25.0816 26.3041 25.3707C25.7595 25.6044 25.1989 25.6638 24.6063 25.5767C24.0777 25.5014 23.5372 25.4816 23.0046 25.4579C22.6842 25.446 22.5361 25.545 22.5401 25.7034C22.5401 25.8658 22.6762 25.8935 23.0006 25.9054C23.6012 25.9291 24.1979 25.9925 24.8506 26.04C24.6864 26.44 24.4942 26.741 24.2699 27.0301C23.6413 27.838 22.8524 28.4637 21.9995 29.03C21.6471 29.2637 21.3268 29.5409 20.9944 29.7983C20.9303 29.8498 20.8463 29.9092 20.8262 29.9805C20.8022 30.0597 20.8102 30.1745 20.8583 30.2419C20.8903 30.2894 21.0064 30.3052 21.0825 30.2973C21.1426 30.2894 21.2026 30.23 21.2587 30.1864C21.7312 29.83 22.2037 29.4775 22.6722 29.1211C23.1487 28.7528 23.6212 28.3805 24.1058 28.0003C24.4461 28.4954 24.5142 29.0657 24.4782 29.6399C24.4461 30.1666 24.338 30.6894 24.2659 31.2121C24.2539 31.3072 24.2259 31.4022 24.2179 31.5012C24.2059 31.62 24.2339 31.7507 24.37 31.7507C24.4581 31.7507 24.5983 31.6755 24.6263 31.6002C24.7104 31.3943 24.7545 31.1725 24.7985 30.9547C24.9347 30.2775 24.9347 29.5924 24.8946 28.9112C24.8666 28.4399 24.6744 28.0201 24.4261 27.6004C24.6343 27.3152 24.8466 27.0301 25.0988 26.6895C25.223 27.0618 25.3311 27.3707 25.4352 27.6796C25.7435 28.6063 26.0599 29.533 26.3602 30.4636C26.5484 31.0458 26.5644 31.6477 26.4283 32.2418C26.3322 32.6616 26.0959 33.0022 25.7235 33.2873C25.5834 33.1922 25.4552 33.113 25.3311 33.0259C24.9106 32.7408 24.4942 32.4556 24.0697 32.1745C23.9616 32.1032 23.8175 32.0477 23.7334 32.1863C23.6893 32.2616 23.6973 32.4002 23.7334 32.4834C24.31 33.6833 24.8946 34.8754 25.4752 36.0714C26.172 37.5089 26.8647 38.9425 27.5575 40.3801C27.6095 40.491 27.6576 40.6098 27.7016 40.7088C27.6736 40.7524 27.6656 40.788 27.6456 40.792C26.6525 41.0692 25.6554 41.3583 24.6223 41.0098C23.9936 40.7999 23.377 40.5662 22.7523 40.3405C22.476 40.2415 22.1957 40.1346 21.9194 40.0277C21.3948 39.8257 20.8703 39.6197 20.3457 39.4138C20.1895 39.3544 20.0294 39.291 19.8692 39.2396C19.709 39.1881 19.5088 39.1208 19.4367 39.3425C19.3647 39.5683 19.5769 39.6079 19.729 39.6752C20.1455 39.8494 20.5579 40.0237 20.9984 40.2098C20.9984 41.0811 20.654 41.7464 19.9333 42.1939C18.8561 42.8632 17.7589 43.5008 16.6738 44.1542C14.2071 45.6314 11.7445 47.1086 9.2778 48.5858C9.13364 48.6729 8.98548 48.7521 8.79728 48.859H8.80128Z" fill="#ECE8D5"/>
<path d="M24.6422 33.1369C24.7543 33.2082 24.8705 33.2755 24.9826 33.3468C25.8796 33.9567 26.7765 34.5666 27.6735 35.1725C27.8537 35.2913 28.0379 35.5249 28.2701 35.3745C28.5304 35.2042 28.3182 34.9626 28.2541 34.7685C27.3291 31.9567 26.3961 29.145 25.4631 26.3332C25.4391 26.2579 25.4191 26.1787 25.383 26.0639C26.1358 25.9886 26.7845 25.6877 27.4052 25.3312C27.6495 25.1926 27.8977 25.0382 28.0819 24.8362C28.7587 24.1036 29.3353 23.2759 29.4754 22.2937C29.5956 21.4343 29.7918 20.5948 29.9359 19.7473C29.984 19.4621 29.7597 19.2602 29.4714 19.3394C29.3273 19.379 29.1951 19.474 29.063 19.5532C27.8096 20.3136 26.5603 21.0779 25.3069 21.8343C25.0547 21.9848 24.7824 22.1036 24.474 22.262C24.0175 20.5948 23.5651 18.9631 23.0926 17.2444C23.3048 17.3196 23.4489 17.3672 23.5851 17.4226C24.5661 17.8147 25.5472 18.2107 26.5283 18.6067C26.5803 18.6265 26.6324 18.6463 26.6844 18.6701C26.8286 18.7255 27.0008 18.8285 27.1129 18.6859C27.177 18.6028 27.1569 18.4245 27.1249 18.3018C26.4602 15.7197 25.7754 13.1455 25.1187 10.5634C24.2218 7.04672 23.3448 3.52605 22.4599 0.005375C22.4278 -0.113433 22.4118 -0.236201 22.3838 -0.37085C22.604 -0.145115 33.0953 20.0562 33.4837 20.9948C33.3876 21.0898 33.2795 21.1967 33.1674 21.2997C32.4706 21.9373 31.83 22.6224 31.2974 23.4066C30.8489 24.064 30.6086 24.7768 30.5926 25.5649C30.5886 25.7431 30.5366 25.8857 30.4204 26.0203C30.2923 26.1708 30.1882 26.3371 30.0641 26.4876C29.8238 26.7728 29.7637 27.1094 29.7397 27.4619C29.7277 27.6757 29.8078 27.8381 29.9639 27.9806C30.2923 28.2777 30.3123 28.6697 30.012 28.9945C29.7437 29.2836 29.4594 29.5568 29.2031 29.8499C28.8508 30.2499 28.4984 30.6499 28.186 31.0855C28.0299 31.3073 27.9378 31.5845 27.8737 31.8538C27.7896 32.1825 27.9458 32.3647 28.2982 32.3686C28.4904 32.3686 28.6986 32.3409 28.8748 32.2696C29.4394 32.0518 29.996 31.8102 30.5526 31.5726C30.8729 31.434 31.4976 31.6558 31.6337 31.9607C31.6978 32.1072 31.6978 32.226 31.5737 32.3369C31.4496 32.4518 31.3214 32.5666 31.2213 32.6973C31.0611 32.9033 30.973 33.1448 31.0892 33.3983C31.1973 33.6319 31.4335 33.6913 31.6658 33.6676C32.0702 33.624 32.4787 33.5686 32.8751 33.4854C33.0633 33.4458 33.2235 33.4458 33.4037 33.5131C33.5999 33.5884 33.8121 33.6161 34.0163 33.6795C34.2165 33.7389 34.2806 33.8537 34.2365 34.0517C34.1204 34.5666 34.2446 34.725 34.7851 34.7685C34.8132 34.7685 34.8412 34.7765 34.9333 34.7923C36.0625 37.3783 37.0996 40.0396 38.1968 42.6732L38.1247 42.7287C38.0006 42.6455 37.8765 42.5663 37.7523 42.4831C35.7902 41.1366 33.8281 39.7941 31.862 38.4476C31.7579 38.3763 31.6578 38.2852 31.5457 38.2417C31.4495 38.206 31.2934 38.1862 31.2373 38.2417C31.1612 38.309 31.1052 38.4635 31.1292 38.5625C31.2253 38.9981 31.3534 39.4258 31.4736 39.8575C32.9712 45.3543 34.4728 50.8512 35.9704 56.348C36.0105 56.4945 36.0385 56.6411 36.0105 56.8113C32.2024 48.9383 28.3943 41.0614 24.5862 33.1884C24.6062 33.1726 24.6222 33.1528 24.6422 33.1369Z" fill="#E1A026"/>
<path d="M31.978 28.0122C32.6988 27.3469 33.3675 26.7053 34.0602 26.0954C34.6689 25.5568 35.3056 25.042 35.9343 24.5271C36.4388 24.1113 36.9994 23.7945 37.6481 23.6519C37.7562 23.6282 37.8683 23.6044 37.9805 23.5965C38.3729 23.5767 38.6251 23.7509 38.7253 24.1311C38.8013 24.4123 38.8734 24.7014 38.9054 24.9905C38.9735 25.6123 39.0336 26.238 39.0616 26.8637C39.0736 27.1805 39.0056 27.4973 38.9735 27.8221C38.4049 27.9845 37.8603 28.131 37.3277 28.2973C36.4428 28.5745 35.6419 28.9983 34.9292 29.5923C34.2484 30.1626 33.5517 30.7052 32.7068 31.0299C32.1702 31.2358 31.9139 31.2517 31.4014 31.0774C31.4855 30.9903 31.5535 30.915 31.6296 30.8477C31.8779 30.6418 32.1342 30.4438 32.3784 30.2339C32.951 29.7468 32.955 28.7052 32.3023 28.2973C32.1982 28.234 32.1141 28.1349 31.974 28.0122H31.978Z" fill="#ECE8D5"/>
<path d="M36.563 37.4892C36.1786 36.5507 35.8142 35.6636 35.4258 34.7171C35.63 34.7012 35.8182 34.6418 35.9784 34.6814C37.0035 34.927 37.9285 34.5982 38.8535 34.2339C39.0096 34.1705 39.1738 34.1072 39.302 34.0082C39.37 33.9567 39.4221 33.8022 39.3941 33.7349C39.362 33.6676 39.2099 33.6082 39.1258 33.628C38.9656 33.6636 38.8134 33.7547 38.6613 33.822C38.0646 34.0874 37.5321 34.1983 36.9875 34.1626C37.4319 33.5369 37.6882 32.9033 37.0996 32.1865C37.6081 31.8498 38.1607 31.6716 38.7534 31.636C39.302 31.6003 39.8465 31.6637 40.3711 31.8459C40.5513 31.9092 40.6474 32.0201 40.6915 32.1983C40.9637 33.228 40.8716 34.2022 40.1709 35.0418C39.8586 35.4141 39.4942 35.7665 39.0897 36.0279C38.2889 36.5427 37.444 36.9902 36.567 37.4972L36.563 37.4892Z" fill="#ECE8D5"/>
<path d="M34.1486 25.4142C34.1086 24.8994 33.8323 24.5865 33.52 24.2934C33.1396 23.9331 32.7992 23.8974 32.3347 24.1588C31.9543 24.3727 31.5899 24.6103 31.3056 24.9509C31.2655 25.0023 31.2055 25.038 31.1094 25.1172C31.1494 24.6538 31.3056 24.2855 31.5138 23.941C32.1505 22.8876 33.0034 22.0163 33.9564 21.2401C34.1687 21.0698 34.445 20.9629 34.7093 20.8757C35.1818 20.7134 35.6342 20.8005 36.0227 21.1134C36.6433 21.6084 37.0518 22.2183 37.0117 23.046C37.0037 23.2202 36.9797 23.3747 36.7875 23.4539C36.0187 23.7747 35.434 24.3529 34.8014 24.8637C34.5971 25.0301 34.3969 25.2003 34.1446 25.4102L34.1486 25.4142Z" fill="#ECE8D5"/>
<path d="M35.0412 30.131C35.6859 29.4973 36.4147 29.0934 37.2035 28.8241C37.9203 28.5825 38.6691 28.4201 39.4139 28.2617C39.8904 28.1588 39.9825 28.2617 40.1507 28.7132C40.2909 29.0973 40.2148 29.4577 40.0947 29.8142C39.9425 30.2617 39.7663 30.7013 39.5901 31.1606C39.5461 31.1686 39.49 31.1963 39.438 31.1884C38.2607 31.0537 37.2396 31.422 36.3346 32.1507C36.0263 32.3962 35.73 32.6576 35.4176 32.8952C34.9972 33.2121 34.5006 33.2952 33.9761 33.1329C34.0882 33.0616 34.1803 33.014 34.2604 32.9546C34.6128 32.7012 34.9772 32.4596 35.3095 32.1784C35.4777 32.0359 35.6058 31.8378 35.7099 31.6438C35.9822 31.129 35.8821 30.7448 35.4176 30.3963C35.3055 30.3131 35.1934 30.2379 35.0412 30.127V30.131Z" fill="#ECE8D5"/>
<path d="M28.3022 31.9251C28.4024 31.6915 28.4384 31.5212 28.5345 31.3944C29.2713 30.4202 30.0361 29.4658 31.0812 28.7846C31.1413 28.745 31.1974 28.7054 31.2574 28.6698C31.6819 28.4124 31.7339 28.4124 32.0703 28.7054C32.3706 28.9708 32.4467 29.2678 32.2785 29.6044C32.2185 29.7272 32.1264 29.842 32.0263 29.9371C31.0572 30.8242 29.952 31.4816 28.6867 31.8618C28.5986 31.8895 28.4985 31.8934 28.3022 31.9251Z" fill="#F16E79"/>
<path d="M33.6519 25.2798C33.6199 25.5689 33.5318 25.7708 33.3436 25.9134C32.7389 26.3728 32.1423 26.8441 31.5176 27.2757C31.2573 27.4539 30.941 27.5728 30.6326 27.6599C30.2923 27.7549 30.1521 27.6044 30.2362 27.2678C30.2803 27.0856 30.3563 26.8916 30.4685 26.7411C30.8329 26.2619 31.2253 25.7986 31.5977 25.3273C31.874 24.9788 32.2384 24.7451 32.6228 24.5273C32.823 24.4125 32.9992 24.4244 33.1594 24.5907C33.2875 24.7214 33.4196 24.8481 33.5278 24.9946C33.5998 25.0897 33.6279 25.2164 33.6559 25.2837L33.6519 25.2798Z" fill="#F16E79"/>
<path d="M31.4814 33.1922C31.5615 33.0575 31.5936 32.9625 31.6576 32.9031C32.3424 32.2971 33.0191 31.6873 33.7279 31.1091C33.9721 30.9071 34.2885 30.7922 34.5768 30.6457C34.8891 30.4873 35.0773 30.7209 35.2775 30.8873C35.4697 31.0497 35.4137 31.2595 35.3056 31.4219C35.1494 31.6516 34.9772 31.8813 34.769 32.0595C33.9601 32.7446 32.9831 33.0535 31.9499 33.212C31.8178 33.2318 31.6817 33.2001 31.4854 33.1922H31.4814Z" fill="#F16E79"/>
<path d="M34.6212 34.2497C35.2459 33.5606 35.9747 33.0814 36.6153 32.519C36.9357 32.6814 36.9877 32.7804 36.9717 33.0616C36.9517 33.4418 36.7755 33.7546 36.4512 33.917C35.9506 34.1665 35.414 34.3447 34.8334 34.3091C34.7934 34.3091 34.7533 34.2893 34.6172 34.2497H34.6212Z" fill="#F16E79"/>
<path d="M25.7432 22.1471C26.8403 21.466 27.8614 20.8363 28.9386 20.167C28.3139 21.5887 27.2608 22.2461 25.7432 22.1471Z" fill="#F16E79"/>
<path d="M24.0816 22.5154C23.9014 21.854 23.7372 21.2481 23.5691 20.6462C23.2527 19.5017 22.9324 18.3611 22.624 17.2166C22.58 17.0542 22.4438 16.8641 22.624 16.7057C22.7962 16.5513 22.9724 16.6899 23.1366 16.7453C23.6652 16.9196 24.3219 16.6463 24.6542 16.1117C25.0026 15.5454 25.0907 14.9117 25.1668 14.2702C25.2949 13.1692 25.0507 12.1158 24.7824 11.0584C23.6732 6.64665 22.568 2.23096 21.4628 -2.18473C21.4187 -2.35502 21.3146 -2.54511 21.5269 -2.6758C21.663 -2.76292 21.7911 -2.6758 21.9473 -2.3669C23.2127 0.0686617 24.474 2.50818 25.7354 4.94374C28.3462 9.99307 30.957 15.0424 33.5678 20.0957C33.6679 20.2937 33.776 20.4838 33.8721 20.662C34.2325 20.563 34.5529 20.464 34.8812 20.3888C35.4018 20.2699 35.8583 20.4363 36.2747 20.7333C36.6832 21.0224 36.9795 21.4145 37.2278 21.8422C37.44 22.2026 37.6682 22.559 37.8925 22.9114C37.9846 23.058 38.1167 23.1372 38.3009 23.1728C38.7894 23.2679 39.0858 23.5728 39.2059 24.0599C39.3861 24.7807 39.4702 25.5133 39.5623 26.246C39.6143 26.642 39.7305 27.0341 39.8386 27.4222C39.8986 27.636 40.0308 27.7944 40.219 27.9489C40.6434 28.2974 40.6875 28.8162 40.6715 29.3271C40.6635 29.533 40.5874 29.735 40.5473 29.9409C40.4673 30.3726 40.4352 30.8003 40.5914 31.2201C40.6234 31.3112 40.6555 31.426 40.7275 31.4735C41.196 31.7943 41.2321 32.3012 41.2681 32.7804C41.3802 34.1903 40.8196 35.315 39.6904 36.1585C39.298 36.4516 38.8655 36.6971 38.4451 36.9506C38.0206 37.204 37.5841 37.4337 37.1597 37.6793C37.0275 37.7545 36.9074 37.8495 36.7593 37.9525C37.0396 38.6376 37.3119 39.3109 37.5882 39.9802C38.0286 41.0534 38.4691 42.1266 38.9096 43.2038C38.9456 43.2949 38.9857 43.386 38.9977 43.481C39.0257 43.6909 38.8215 43.8652 38.6213 43.7979C38.5011 43.7583 38.397 43.683 38.2809 43.6276C37.6562 43.3068 37.0396 42.9662 36.4029 42.6692C35.8383 42.4038 35.2336 42.2613 34.6049 42.2296C34.1444 42.2058 33.776 42.388 33.5238 42.7682C33.1674 43.3068 33.0393 43.8889 33.2154 44.5226C34.2125 48.1739 35.2056 51.8253 36.1987 55.4767C36.543 56.7439 36.8914 58.0073 37.2358 59.2745C37.2798 59.4409 37.3959 59.6547 37.1557 59.7498C36.9074 59.8488 36.8554 59.6072 36.7833 59.4528C34.661 55.0688 32.5387 50.6808 30.4204 46.2968C29.6876 44.784 28.9549 43.2711 28.2221 41.7623C28.166 41.6514 28.1099 41.5405 28.0579 41.4415C28.0098 41.4336 27.9778 41.4177 27.9538 41.4217C26.7765 41.786 25.5472 41.6989 24.3419 41.8177C23.529 41.8969 22.7081 41.9682 21.9073 42.1147C20.8702 42.3009 19.9291 42.7325 19.0282 43.2791C15.8247 45.2196 12.6012 47.1364 9.38979 49.061C9.31771 49.1046 9.24564 49.1521 9.17356 49.1917C8.82518 49.3699 8.73709 49.3462 8.52886 49.0096C6.63883 45.9602 4.74879 42.9108 2.85475 39.8614C2.73863 39.6752 2.58647 39.5129 2.44231 39.3426C2.31818 39.196 2.32619 39.0614 2.48235 38.9545C2.53841 38.9148 2.61049 38.8911 2.67056 38.8594C7.1674 36.5427 11.6642 34.2259 16.1651 31.9131C16.3853 31.8022 16.4974 31.6478 16.5895 31.43C17.1742 30.0201 17.7388 28.6063 18.3795 27.2202C18.7078 26.5113 19.1603 25.8618 19.5808 25.2005C19.9091 24.6856 20.3656 24.2857 20.8902 23.9649C21.5148 23.5807 22.1716 23.256 22.8683 23.0144C23.2647 22.8758 23.6491 22.7015 24.0896 22.5194L24.0816 22.5154ZM8.80116 48.8591C8.98936 48.7521 9.13752 48.6729 9.28167 48.5858C11.7483 47.1086 14.211 45.6315 16.6776 44.1543C17.7668 43.5008 18.86 42.8632 19.9371 42.1939C20.6579 41.7464 21.0023 41.0772 21.0023 40.2099C20.5618 40.0237 20.1454 39.8495 19.7329 39.6752C19.5808 39.6119 19.3685 39.5683 19.4406 39.3426C19.5127 39.1208 19.7089 39.1881 19.8731 39.2396C20.0333 39.2911 20.1934 39.3544 20.3496 39.4138C20.8742 39.6158 21.3987 39.8218 21.9233 40.0277C22.1996 40.1346 22.4759 40.2376 22.7562 40.3405C23.3769 40.5663 23.9975 40.7999 24.6262 41.0098C25.6633 41.3583 26.6564 41.0692 27.6495 40.792C27.6695 40.7881 27.6775 40.7485 27.7055 40.7088C27.6615 40.6059 27.6174 40.491 27.5614 40.3801C26.8686 38.9426 26.1759 37.505 25.4791 36.0714C24.8985 34.8754 24.3139 33.6833 23.7372 32.4834C23.6972 32.4002 23.6892 32.2577 23.7372 32.1864C23.8213 32.0478 23.9615 32.1032 24.0736 32.1745C24.4941 32.4557 24.9145 32.7408 25.335 33.0259C25.4591 33.1091 25.5872 33.1923 25.7274 33.2873C26.0998 33.0022 26.34 32.6616 26.4321 32.2418C26.5683 31.6478 26.5523 31.0498 26.3641 30.4637C26.0597 29.533 25.7474 28.6063 25.4391 27.6796C25.335 27.3667 25.2268 27.0578 25.1027 26.6895C24.8544 27.0301 24.6422 27.3153 24.43 27.6004C24.6783 28.0202 24.8705 28.44 24.8985 28.9112C24.9385 29.5964 24.9385 30.2815 24.8024 30.9547C24.7583 31.1725 24.7143 31.3943 24.6302 31.6003C24.5982 31.6755 24.462 31.7507 24.3739 31.7507C24.2378 31.7507 24.2057 31.6201 24.2218 31.5012C24.2298 31.4062 24.2578 31.3072 24.2698 31.2121C24.3459 30.6894 24.45 30.1666 24.482 29.6399C24.5181 29.0657 24.45 28.4994 24.1096 28.0004C23.6251 28.3806 23.1526 28.7528 22.6761 29.1211C22.2076 29.4815 21.7351 29.834 21.2626 30.1864C21.2065 30.23 21.1505 30.2894 21.0864 30.2973C21.0103 30.3052 20.8942 30.2894 20.8621 30.2419C20.8181 30.1746 20.8061 30.0597 20.8301 29.9805C20.8501 29.9092 20.9342 29.8498 20.9983 29.7983C21.3306 29.537 21.651 29.2597 22.0034 29.03C22.8523 28.4637 23.6411 27.838 24.2738 27.0301C24.4981 26.745 24.6903 26.44 24.8544 26.04C24.2017 25.9886 23.6051 25.9292 23.0044 25.9054C22.6801 25.8935 22.544 25.8658 22.544 25.7034C22.544 25.545 22.6921 25.446 23.0085 25.4579C23.545 25.4777 24.0816 25.4975 24.6102 25.5767C25.2028 25.6599 25.7634 25.6044 26.308 25.3708C26.9847 25.0817 27.6655 24.7886 28.0939 24.151C28.3422 23.7787 28.5905 23.3986 28.7707 22.9906C28.9148 22.6659 28.9669 22.2976 29.0349 21.9451C29.059 21.8224 29.091 21.656 28.9068 21.5848C28.7506 21.5253 28.6465 21.6046 28.5304 21.6996C27.7415 22.353 26.8366 22.6857 25.8035 22.6461C25.5792 22.6382 25.355 22.5946 25.1267 22.5946C24.9906 22.5946 24.8504 22.6223 24.7263 22.6738C24.0015 22.9788 23.2807 23.2995 22.556 23.6124C21.4548 24.0876 20.4057 24.6381 19.777 25.7113C19.3125 26.5074 18.836 27.3073 18.4395 28.139C18.0071 29.0459 17.6427 29.9884 17.2703 30.923C16.9419 31.7389 16.6016 32.5547 16.4614 33.4339C16.3533 34.1229 16.2492 34.8081 16.1411 35.4971C16.1331 35.5526 16.1411 35.6278 16.113 35.6595C16.041 35.7308 15.9489 35.8179 15.8568 35.8259C15.8047 35.8298 15.6926 35.707 15.6806 35.6318C15.6525 35.4694 15.6525 35.2952 15.6806 35.1328C15.8207 34.3645 15.9729 33.5962 16.121 32.8279C16.1451 32.7091 16.1611 32.5864 16.1931 32.4002C11.7203 34.7051 7.30755 36.9783 2.86276 39.2673C4.85691 42.487 6.81902 45.6552 8.80516 48.8591H8.80116ZM24.6422 33.1368C24.6422 33.1368 24.6062 33.1725 24.5862 33.1883C28.3943 41.0613 32.2024 48.9383 36.0105 56.8113C36.0385 56.641 36.0105 56.4905 35.9704 56.3479C34.4728 50.8511 32.9712 45.3542 31.4736 39.8574C31.3574 39.4257 31.2293 38.998 31.1292 38.5624C31.1092 38.4634 31.1612 38.3089 31.2373 38.2416C31.2974 38.1901 31.4495 38.2099 31.5456 38.2416C31.6618 38.2852 31.7579 38.3763 31.862 38.4475C33.8241 39.794 35.7862 41.1405 37.7523 42.483C37.8765 42.5662 38.0006 42.6454 38.1247 42.7286L38.1968 42.6731C37.0996 40.0356 36.0585 37.3783 34.9333 34.7922C34.8412 34.7764 34.8132 34.7685 34.7851 34.7685C34.2446 34.7249 34.1204 34.5625 34.2365 34.0517C34.2806 33.8576 34.2165 33.7428 34.0163 33.6794C33.8121 33.62 33.5999 33.5883 33.4036 33.5131C33.2234 33.4457 33.0633 33.4457 32.8751 33.4853C32.4787 33.5685 32.0702 33.6239 31.6658 33.6675C31.4335 33.6913 31.2013 33.6319 31.0892 33.3982C30.969 33.1448 31.0571 32.9032 31.2213 32.6972C31.3254 32.5666 31.4535 32.4517 31.5737 32.3369C31.6978 32.222 31.6978 32.1072 31.6337 31.9606C31.4976 31.6557 30.8729 31.4339 30.5526 31.5725C29.996 31.8141 29.4394 32.0517 28.8748 32.2695C28.6946 32.3408 28.4904 32.3685 28.2981 32.3685C27.9458 32.3685 27.7936 32.1864 27.8737 31.8537C27.9418 31.5884 28.0299 31.3072 28.186 31.0854C28.4944 30.6538 28.8507 30.2538 29.2031 29.8498C29.4634 29.5528 29.7477 29.2835 30.012 28.9944C30.3123 28.6697 30.2923 28.2776 29.9639 27.9806C29.8078 27.838 29.7277 27.6756 29.7397 27.4618C29.7637 27.1093 29.8238 26.7687 30.0641 26.4876C30.1922 26.3371 30.2963 26.1707 30.4204 26.0202C30.5326 25.8856 30.5886 25.743 30.5926 25.5648C30.6126 24.7767 30.8529 24.0639 31.2974 23.4065C31.83 22.6223 32.4706 21.9412 33.1674 21.2996C33.2795 21.1966 33.3836 21.0897 33.4837 20.9947C33.0993 20.0561 22.608 -0.149153 22.3838 -0.370927C22.4118 -0.236278 22.4278 -0.11351 22.4599 0.00529742C23.3448 3.52597 24.2218 7.04664 25.1187 10.5633C25.7754 13.1454 26.4602 15.7236 27.1249 18.3017C27.1569 18.4245 27.1769 18.6027 27.1129 18.6858C27.0008 18.8284 26.8286 18.7294 26.6844 18.67C26.6324 18.6502 26.5803 18.6304 26.5282 18.6066C25.5472 18.2106 24.5661 17.8146 23.5851 17.4225C23.4489 17.3671 23.3088 17.3196 23.0925 17.2443C23.5651 18.9631 24.0135 20.5986 24.474 22.262C24.7824 22.1035 25.0587 21.9847 25.3069 21.8342C26.5603 21.0778 27.8096 20.3135 29.063 19.5531C29.1951 19.4739 29.3273 19.3789 29.4714 19.3393C29.7597 19.2601 29.984 19.466 29.9359 19.7472C29.7878 20.5986 29.5955 21.4382 29.4754 22.2936C29.3353 23.2797 28.7586 24.1074 28.0819 24.8361C27.8937 25.0381 27.6454 25.1926 27.4052 25.3312C26.7805 25.6836 26.1318 25.9886 25.383 26.0638C25.415 26.1747 25.4351 26.2539 25.4631 26.3331C26.3961 29.1449 27.3291 31.9527 28.2541 34.7685C28.3182 34.9625 28.5304 35.2041 28.2701 35.3744C28.0379 35.5249 27.8537 35.2912 27.6735 35.1724C26.7725 34.5665 25.8795 33.9566 24.9826 33.3467C24.8705 33.2715 24.7543 33.2042 24.6422 33.1368ZM31.9781 28.0123C32.1183 28.135 32.2024 28.234 32.3065 28.2974C32.9592 28.7053 32.9552 29.7468 32.3825 30.234C32.1343 30.4439 31.882 30.6419 31.6337 30.8478C31.5537 30.9112 31.4896 30.9904 31.4055 31.0775C31.9221 31.2517 32.1743 31.2359 32.7109 31.03C33.5558 30.7052 34.2526 30.1627 34.9333 29.5924C35.6461 28.9984 36.4469 28.5746 37.3319 28.2974C37.8685 28.1311 38.409 27.9845 38.9776 27.8222C39.0097 27.4974 39.0778 27.1766 39.0657 26.8638C39.0417 26.2381 38.9817 25.6123 38.9096 24.9906C38.8775 24.7015 38.8055 24.4124 38.7294 24.1312C38.6293 23.755 38.377 23.5807 37.9846 23.5966C37.8725 23.6005 37.7603 23.6243 37.6522 23.652C37.0035 23.7946 36.4429 24.1114 35.9384 24.5272C35.3097 25.046 34.673 25.5569 34.0644 26.0955C33.3716 26.7093 32.6989 27.3469 31.9821 28.0123H31.9781ZM36.563 37.4892C37.44 36.9822 38.2849 36.5387 39.0858 36.0199C39.4902 35.7585 39.8586 35.4061 40.1669 35.0338C40.8677 34.1942 40.9598 33.22 40.6875 32.1903C40.6394 32.0121 40.5473 31.9012 40.3671 31.8379C39.8426 31.6517 39.298 31.5923 38.7494 31.628C38.1568 31.6676 37.6042 31.8418 37.0956 32.1784C37.6843 32.8953 37.428 33.5289 36.9835 34.1546C37.5281 34.1903 38.0647 34.0794 38.6573 33.814C38.8135 33.7467 38.9616 33.6556 39.1218 33.62C39.2059 33.6002 39.3621 33.6635 39.3901 33.7269C39.4221 33.7942 39.3661 33.9487 39.298 34.0002C39.1658 34.0992 39.0057 34.1665 38.8495 34.2259C37.9285 34.5902 36.9995 34.9189 35.9744 34.6734C35.8142 34.6338 35.626 34.6932 35.4218 34.7091C35.8102 35.6556 36.1706 36.5427 36.559 37.4812L36.563 37.4892ZM34.1484 25.4143C34.3967 25.2044 34.6009 25.0341 34.8052 24.8678C35.4338 24.353 36.0185 23.7787 36.7913 23.458C36.9835 23.3788 37.0075 23.2243 37.0155 23.0501C37.0516 22.2184 36.6471 21.6125 36.0265 21.1174C35.6381 20.8046 35.1856 20.7175 34.7131 20.8798C34.4488 20.9709 34.1725 21.0739 33.9602 21.2442C33.0072 22.0164 32.1543 22.8877 31.5176 23.9451C31.3094 24.2896 31.1572 24.6579 31.1132 25.1213C31.2093 25.0421 31.2653 25.0064 31.3094 24.9549C31.5897 24.6104 31.9541 24.3767 32.3385 24.1629C32.803 23.9015 33.1434 23.9371 33.5238 24.2975C33.8361 24.5906 34.1124 24.9035 34.1525 25.4183L34.1484 25.4143ZM35.0414 30.131C35.1936 30.2379 35.3097 30.3171 35.4178 30.4003C35.8783 30.7488 35.9784 31.1329 35.7101 31.6478C35.606 31.8418 35.4779 32.0438 35.3097 32.1824C34.9773 32.4636 34.6129 32.7052 34.2606 32.9586C34.1805 33.018 34.0884 33.0655 33.9763 33.1368C34.5008 33.2992 34.9974 33.216 35.4178 32.8992C35.7301 32.6616 36.0305 32.4002 36.3348 32.1547C37.2398 31.426 38.2569 31.0577 39.4381 31.1923C39.4902 31.1963 39.5463 31.1725 39.5903 31.1646C39.7625 30.7052 39.9427 30.2656 40.0949 29.8181C40.215 29.4617 40.2951 29.1013 40.1509 28.7172C39.9827 28.2618 39.8906 28.1588 39.4141 28.2657C38.6693 28.4281 37.9205 28.5865 37.2037 28.8281C36.4149 29.0974 35.6861 29.5013 35.0414 30.135V30.131ZM28.3022 31.925C28.5024 31.8933 28.5985 31.8854 28.6866 31.8616C29.9519 31.4814 31.0571 30.824 32.0262 29.9369C32.1263 29.8459 32.2144 29.727 32.2784 29.6043C32.4466 29.2677 32.3705 28.9706 32.0702 28.7053C31.7379 28.4122 31.6858 28.4122 31.2573 28.6697C31.1973 28.7053 31.1372 28.7449 31.0811 28.7845C30.036 29.4657 29.2712 30.4201 28.5344 31.3943C28.4383 31.521 28.4023 31.6913 28.3022 31.925ZM33.6519 25.2797C33.6239 25.2124 33.5959 25.0856 33.5238 24.9906C33.4157 24.844 33.2795 24.7213 33.1554 24.5866C32.9952 24.4203 32.823 24.4084 32.6188 24.5233C32.2384 24.7411 31.874 24.9747 31.5937 25.3232C31.2213 25.7985 30.8289 26.2579 30.4645 26.7371C30.3524 26.8875 30.2763 27.0776 30.2322 27.2638C30.1481 27.6004 30.2883 27.7509 30.6287 27.6558C30.937 27.5687 31.2533 27.4499 31.5136 27.2717C32.1383 26.84 32.7349 26.3687 33.3396 25.9094C33.5278 25.7668 33.6159 25.5609 33.6479 25.2757L33.6519 25.2797ZM31.4816 33.1923C31.6778 33.2042 31.8139 33.2319 31.9461 33.2121C32.9792 33.0497 33.9562 32.7448 34.7651 32.0596C34.9733 31.8814 35.1455 31.6517 35.3017 31.422C35.4098 31.2597 35.4659 31.0498 35.2737 30.8874C35.0734 30.7211 34.8892 30.4874 34.5729 30.6458C34.2846 30.7924 33.9683 30.9112 33.724 31.1092C33.0192 31.6874 32.3385 32.3012 31.6538 32.9032C31.5897 32.9626 31.5577 33.0576 31.4776 33.1923H31.4816ZM34.621 34.2497C34.7571 34.2853 34.7971 34.3051 34.8372 34.3091C35.4178 34.3447 35.9544 34.1665 36.4549 33.917C36.7793 33.7546 36.9555 33.4418 36.9755 33.0616C36.9915 32.7804 36.9354 32.6814 36.6191 32.519C35.9784 33.0814 35.2496 33.5606 34.625 34.2497H34.621ZM25.7434 22.1471C27.261 22.2461 28.3142 21.5927 28.9388 20.167C27.8617 20.8363 26.8406 21.4659 25.7434 22.1471Z" fill="#1E1E1E"/>
</g>
<path d="M17.7747 24.1706C17.7747 24.1706 17.7627 24.1469 17.7587 24.1389C17.7146 24.1389 17.6706 24.135 17.6305 24.1389C17.3462 24.1785 17.0619 24.1508 16.7816 24.0954C16.1009 23.9647 15.5443 23.636 15.1879 23.034C14.8756 22.5073 14.8275 21.937 14.9396 21.347C15.0478 20.7846 15.308 20.2856 15.6564 19.8341C15.6925 19.7906 15.7245 19.7431 15.7685 19.6797C15.7245 19.6797 15.7045 19.6797 15.6885 19.6797C15.6524 19.6836 15.6164 19.6916 15.5803 19.6995C15.0758 19.8341 14.6273 20.0757 14.2589 20.444C13.8184 20.8796 13.5542 21.4064 13.5181 22.0242C13.4741 22.7806 13.7584 23.4142 14.327 23.9172C15.1839 24.6736 16.4773 24.8241 17.5384 24.3013C17.6185 24.2617 17.6946 24.2142 17.7747 24.1706Z" fill="#1E1E1E"/>
<path d="M17.7747 24.1706C17.6946 24.2142 17.6185 24.2617 17.5384 24.3013C16.4773 24.8241 15.1839 24.6775 14.327 23.9172C13.7584 23.4142 13.4741 22.7806 13.5181 22.0242C13.5542 21.4064 13.8184 20.8836 14.2589 20.444C14.6313 20.0757 15.0758 19.8341 15.5803 19.6995C15.6164 19.6916 15.6524 19.6836 15.6885 19.6797C15.7045 19.6797 15.7245 19.6797 15.7685 19.6797C15.7245 19.7391 15.6925 19.7866 15.6564 19.8341C15.304 20.2856 15.0478 20.7846 14.9396 21.347C14.8275 21.937 14.8756 22.5073 15.1879 23.034C15.5483 23.636 16.1009 23.9647 16.7816 24.0954C17.0619 24.1508 17.3422 24.1785 17.6305 24.1389C17.6746 24.131 17.9189 24.0993 17.9189 24.0993L17.7747 24.1706Z" fill="#E1A026"/>
<path d="M28.9031 21.5847C28.7469 21.5253 28.6428 21.6045 28.5267 21.6996C27.7378 22.353 26.8328 22.6857 25.7997 22.6461C25.5635 22.6382 25.3312 22.5906 25.095 22.5946C24.9588 22.5946 24.8227 22.6342 24.6945 22.6857C23.9778 22.9906 23.265 23.3035 22.5522 23.6124C21.4511 24.0876 20.4019 24.6381 19.7732 25.7113C19.3087 26.5073 18.8322 27.3073 18.4358 28.139C18.0033 29.0459 17.6389 29.9884 17.2665 30.923C16.9382 31.7388 16.5978 32.5546 16.4577 33.4338C16.3896 33.8576 16.3175 34.2813 16.2535 34.7051C16.2134 34.9744 16.1894 35.2476 16.1333 35.5169C16.1173 35.5922 16.0973 35.6674 16.0492 35.7268C16.0132 35.7704 15.9651 35.7981 15.9091 35.81C15.8811 35.8179 15.849 35.8179 15.817 35.81C15.7649 35.7941 15.7289 35.7466 15.7009 35.6991C15.6088 35.509 15.6568 35.2674 15.6808 35.0654C15.7129 34.808 15.7569 34.5546 15.805 34.3011C15.9011 33.81 16.0172 33.3229 16.1093 32.8319C16.1333 32.7131 16.1493 32.5903 16.1814 32.4042C15.1162 32.9507 14.0591 33.4972 13.002 34.0437V40.6138C13.1821 40.6375 13.3623 40.6613 13.5425 40.689C14.2353 40.7959 14.864 41.1128 15.4886 41.4296C15.5327 41.4375 15.5727 41.4494 15.6168 41.4573C16.6659 41.6197 17.5909 42.3721 18.2636 43.2077C18.8202 42.8751 19.3768 42.5424 19.9254 42.1979C20.6462 41.7504 20.9906 41.0811 20.9906 40.2138C20.5501 40.0277 20.1336 39.8534 19.7212 39.6792C19.569 39.6158 19.3568 39.5722 19.4289 39.3465C19.4969 39.1366 19.6811 39.1881 19.8373 39.2356C19.9294 39.2633 20.0215 39.295 20.1096 39.3307C20.7103 39.5603 21.3109 39.798 21.9115 40.0316C22.1878 40.1385 22.4641 40.2415 22.7444 40.3445C23.3651 40.5702 23.9858 40.8039 24.6145 41.0138C25.6516 41.3623 26.6446 41.0732 27.6377 40.7959C27.6577 40.792 27.6657 40.7524 27.6938 40.7128C27.6497 40.6098 27.6057 40.495 27.5496 40.3841C26.8569 38.9465 26.1641 37.5089 25.4674 36.0753C24.8868 34.8793 24.3021 33.6873 23.7255 32.4873C23.6855 32.4042 23.6774 32.2616 23.7255 32.1903C23.8096 32.0517 23.9497 32.1071 24.0619 32.1784C24.4823 32.4596 24.9028 32.7447 25.3232 33.0299C25.5715 33.1962 25.9159 33.1487 26.1001 32.9111C26.2562 32.7131 26.3643 32.4913 26.4204 32.2418C26.5565 31.6477 26.5405 31.0497 26.3523 30.4636C26.048 29.533 25.7357 28.6063 25.4273 27.6796C25.3232 27.3667 25.2151 27.0578 25.091 26.6895C24.8427 27.0301 24.6305 27.3152 24.4182 27.6004C24.6665 28.0201 24.8587 28.4399 24.8868 28.9112C24.9268 29.5963 24.9268 30.2815 24.7906 30.9547C24.7466 31.1725 24.7026 31.3943 24.6185 31.6002C24.5864 31.6755 24.4503 31.7507 24.3622 31.7507C24.226 31.7507 24.194 31.62 24.21 31.5012C24.218 31.4062 24.2461 31.3072 24.2581 31.2121C24.3342 30.6894 24.4383 30.1666 24.4703 29.6399C24.5063 29.0657 24.4383 28.4993 24.0979 28.0003C23.6134 28.3805 23.1409 28.7528 22.6644 29.1211C22.1838 29.4894 21.6953 29.8419 21.2188 30.2141C21.1828 30.2419 21.1507 30.2696 21.1067 30.2854C21.0426 30.3131 20.8945 30.3052 20.8504 30.2419C20.6662 29.9686 21.0746 29.7033 21.2548 29.5488C21.6513 29.2122 22.1158 28.9587 22.5362 28.6538C22.9567 28.3489 23.3491 28.0241 23.7095 27.6598C23.9057 27.4618 24.0899 27.2519 24.2621 27.034C24.4863 26.7489 24.6785 26.444 24.8427 26.044C24.19 25.9925 23.5934 25.9331 22.9927 25.9093C22.6684 25.8974 22.5322 25.8697 22.5322 25.7074C22.5322 25.5489 22.6804 25.4499 22.9967 25.4618C23.5333 25.4816 24.0699 25.5014 24.5984 25.5806C25.1911 25.6638 25.7517 25.6084 26.2963 25.3747C26.973 25.0856 27.6537 24.7925 28.0822 24.1549C28.3305 23.7827 28.5787 23.4025 28.7589 22.9946C28.9031 22.6698 28.9551 22.3015 29.0232 21.9491C29.0472 21.8263 29.0793 21.66 28.8951 21.5887L28.9031 21.5847Z" fill="#ECE8D5"/>
<path d="M31.978 28.0122C32.6988 27.3469 33.3675 26.7053 34.0602 26.0954C34.6689 25.5568 35.3056 25.042 35.9343 24.5271C36.4388 24.1113 36.9994 23.7945 37.6481 23.6519C37.7562 23.6282 37.8683 23.6044 37.9805 23.5965C38.3729 23.5767 38.6251 23.7509 38.7253 24.1311C38.8013 24.4123 38.8734 24.7014 38.9054 24.9905C38.9735 25.6123 39.0336 26.238 39.0616 26.8637C39.0736 27.1805 39.0056 27.4973 38.9735 27.8221C38.4049 27.9845 37.8603 28.131 37.3277 28.2973C36.4428 28.5745 35.6419 28.9983 34.9292 29.5923C34.2484 30.1626 33.5517 30.7052 32.7068 31.0299C32.1702 31.2358 31.9139 31.2517 31.4014 31.0774C31.4855 30.9903 31.5535 30.915 31.6296 30.8477C31.8779 30.6418 32.1342 30.4438 32.3784 30.2339C32.951 29.7468 32.955 28.7052 32.3023 28.2973C32.1982 28.234 32.1141 28.1349 31.974 28.0122H31.978Z" fill="#ECE8D5"/>
<path d="M36.563 37.4892C36.1786 36.5507 35.8142 35.6636 35.4258 34.7171C35.63 34.7012 35.8182 34.6418 35.9784 34.6814C37.0035 34.927 37.9285 34.5982 38.8535 34.2339C39.0096 34.1705 39.1738 34.1072 39.302 34.0082C39.37 33.9567 39.4221 33.8022 39.3941 33.7349C39.362 33.6676 39.2099 33.6082 39.1258 33.628C38.9656 33.6636 38.8134 33.7547 38.6613 33.822C38.0646 34.0874 37.5321 34.1983 36.9875 34.1626C37.4319 33.5369 37.6882 32.9033 37.0996 32.1865C37.6081 31.8498 38.1607 31.6716 38.7534 31.636C39.302 31.6003 39.8465 31.6637 40.3711 31.8459C40.5513 31.9092 40.6474 32.0201 40.6915 32.1983C40.9637 33.228 40.8716 34.2022 40.1709 35.0418C39.8586 35.4141 39.4942 35.7665 39.0897 36.0279C38.2889 36.5427 37.444 36.9902 36.567 37.4972L36.563 37.4892Z" fill="#ECE8D5"/>
<path d="M34.1486 25.4144C34.1086 24.8996 33.8323 24.5868 33.52 24.2937C33.1396 23.9333 32.7992 23.8977 32.3347 24.159C31.9543 24.3729 31.5899 24.6105 31.3056 24.9511C31.2655 25.0026 31.2055 25.0382 31.1094 25.1174C31.1494 24.6541 31.3056 24.2858 31.5138 23.9412C32.1505 22.8878 33.0034 22.0165 33.9564 21.2403C34.1687 21.07 34.445 20.9631 34.7093 20.876C35.1818 20.7136 35.6342 20.8007 36.0227 21.1136C36.6433 21.6086 37.0518 22.2185 37.0117 23.0462C37.0037 23.2205 36.9797 23.3749 36.7875 23.4541C36.0187 23.7749 35.434 24.3531 34.8014 24.864C34.5971 25.0303 34.3969 25.2006 34.1446 25.4105L34.1486 25.4144Z" fill="#ECE8D5"/>
<path d="M35.0417 30.131C35.6864 29.4973 36.4152 29.0934 37.204 28.8241C37.9208 28.5825 38.6696 28.4201 39.4144 28.2617C39.8909 28.1588 39.983 28.2617 40.1512 28.7132C40.2914 29.0973 40.2153 29.4577 40.0951 29.8142C39.943 30.2617 39.7668 30.7013 39.5906 31.1606C39.5466 31.1686 39.4905 31.1963 39.4384 31.1884C38.2612 31.0537 37.2401 31.422 36.3351 32.1507C36.0268 32.3962 35.7304 32.6576 35.4181 32.8952C34.9977 33.2121 34.5011 33.2952 33.9766 33.1329C34.0887 33.0616 34.1808 33.014 34.2609 32.9546C34.6132 32.7012 34.9776 32.4596 35.31 32.1784C35.4782 32.0359 35.6063 31.8378 35.7104 31.6438C35.9827 31.129 35.8826 30.7448 35.4181 30.3963C35.306 30.3131 35.1939 30.2379 35.0417 30.127V30.131Z" fill="#ECE8D5"/>
<path d="M25.7437 22.1471C26.8408 21.466 27.8619 20.8363 28.9391 20.167C28.3144 21.5887 27.2613 22.2461 25.7437 22.1471Z" fill="#F16E79"/>
<path d="M41.2682 32.7804C41.2322 32.3013 41.1961 31.7943 40.7276 31.4736C40.6555 31.426 40.6235 31.3112 40.5915 31.2201C40.4353 30.8003 40.4673 30.3686 40.5474 29.9409C40.5875 29.735 40.6635 29.533 40.6716 29.3271C40.6876 28.8202 40.6475 28.3014 40.2191 27.9489C40.0309 27.7945 39.8987 27.6321 39.8387 27.4222C39.7305 27.0341 39.6144 26.642 39.5624 26.246C39.4703 25.5134 39.3822 24.7807 39.206 24.0599C39.0858 23.5728 38.7935 23.2679 38.301 23.1729C38.1168 23.1372 37.9847 23.058 37.8926 22.9115C37.6683 22.559 37.4401 22.2026 37.2278 21.8422C36.9756 21.4145 36.6833 21.0264 36.2748 20.7333C35.8584 20.4403 35.4019 20.27 34.8813 20.3888C34.557 20.464 34.2366 20.563 33.8722 20.662C33.7761 20.4838 33.668 20.2937 33.5679 20.0957C30.9571 15.0464 28.3463 9.99707 25.7355 4.94378C24.4741 2.50426 23.2128 0.0686967 21.9474 -2.36686C21.7872 -2.6718 21.6631 -2.75893 21.5269 -2.67576C21.3147 -2.54507 21.4188 -2.35498 21.4629 -2.18469C22.5681 2.231 23.6733 6.64669 24.7824 11.0584C25.0467 12.1158 25.291 13.1692 25.1669 14.2702C25.0948 14.9118 25.0067 15.5454 24.6543 16.1117C24.3219 16.6463 23.6652 16.9196 23.1367 16.7453C22.9685 16.6899 22.7963 16.5513 22.6241 16.7057C22.4479 16.8642 22.5841 17.0543 22.6241 17.2166C22.9325 18.3611 23.2528 19.5057 23.5691 20.6462C23.7373 21.2482 23.9015 21.8541 24.0817 22.5154C23.6412 22.6937 23.2568 22.8719 22.8604 23.0105C22.1556 23.2521 21.4989 23.5808 20.8662 23.9689C20.3216 24.3055 19.8571 24.757 19.5128 25.2916C19.1083 25.9173 18.6839 26.5391 18.3755 27.2123C17.7349 28.5944 17.1702 30.0122 16.5856 31.4221C16.4935 31.6399 16.3814 31.7904 16.1612 31.9052C15.104 32.4478 14.0469 32.9943 12.9897 33.5368C13.0018 33.6834 13.0138 33.826 13.0138 33.9725V34.0398C14.0709 33.4933 15.1321 32.9507 16.1932 32.4003C16.1612 32.5864 16.1451 32.7092 16.1211 32.828C16.033 33.2874 15.9409 33.7467 15.8568 34.2061C15.7727 34.6378 15.6486 35.0814 15.6686 35.5249C15.6766 35.6714 15.7447 35.8417 15.9249 35.7863C16.0851 35.7388 16.1371 35.5922 16.1572 35.4417C16.1572 35.2833 16.2052 35.1091 16.2292 34.9507C16.2533 34.7764 16.2813 34.6022 16.3053 34.424C16.3534 34.0913 16.3814 33.7547 16.4655 33.426C16.6016 32.5468 16.946 31.7349 17.2744 30.9152C17.6468 29.9805 18.0112 29.038 18.4436 28.1311C18.84 27.2994 19.3126 26.5034 19.7811 25.7035C20.4097 24.6263 21.4589 24.0798 22.5601 23.6045C23.2728 23.2956 23.9856 22.9828 24.7024 22.6778C24.8305 22.6224 24.9626 22.5867 25.1028 22.5867C25.339 22.5867 25.5713 22.6263 25.8075 22.6382C26.8407 22.6778 27.7456 22.3452 28.5345 21.6917C28.6506 21.5967 28.7547 21.5175 28.9109 21.5769C29.0951 21.6482 29.0631 21.8105 29.039 21.9373C28.971 22.2897 28.9189 22.658 28.7747 22.9828C28.5945 23.3907 28.3463 23.7709 28.098 24.1431C27.6695 24.7807 26.9888 25.0738 26.3121 25.3629C25.7675 25.5965 25.2069 25.652 24.6143 25.5688C24.0857 25.4936 23.5451 25.4738 23.0125 25.45C22.6922 25.4381 22.544 25.5371 22.548 25.6955C22.548 25.8579 22.6842 25.8856 23.0085 25.8975C23.6092 25.9213 24.2058 25.9846 24.8585 26.0322C24.6943 26.4321 24.5021 26.7331 24.2779 27.0222C23.6292 27.8539 22.8003 28.4756 21.9314 29.0618C21.603 29.2835 21.2947 29.533 20.9984 29.7944C20.9383 29.8498 20.8622 29.8895 20.8382 29.9726C20.8142 30.0518 20.8222 30.1667 20.8702 30.234C20.9023 30.2815 21.0184 30.2974 21.0945 30.2894C21.1545 30.2815 21.2146 30.2221 21.2707 30.1786C21.7432 29.8221 22.2157 29.4697 22.6842 29.1132C23.1607 28.7449 23.6332 28.3727 24.1177 27.9925C24.4581 28.4875 24.5262 29.0578 24.4901 29.632C24.4581 30.1588 24.35 30.6815 24.2779 31.2043C24.2659 31.2993 24.2379 31.3944 24.2298 31.4934C24.2178 31.6122 24.2459 31.7429 24.382 31.7429C24.4701 31.7429 24.6103 31.6676 24.6383 31.5924C24.7224 31.3864 24.7664 31.1647 24.8105 30.9468C24.9466 30.2696 24.9466 29.5845 24.9066 28.9033C24.8785 28.4321 24.6863 28.0123 24.4381 27.5925L24.4941 27.5173C24.7544 27.1648 25.307 27.2519 25.4432 27.6638V27.6717C25.7555 28.5984 26.0678 29.5251 26.3722 30.4558C26.5604 31.0379 26.5764 31.6399 26.4402 32.2339C26.3842 32.4834 26.2761 32.7092 26.1199 32.9072C25.9357 33.1408 25.5953 33.1884 25.3471 33.022C24.9266 32.7369 24.5101 32.4478 24.0857 32.1666C23.9776 32.0953 23.8334 32.0399 23.7493 32.1785C23.7053 32.2537 23.7133 32.3923 23.7493 32.4755C24.326 33.6755 24.9106 34.8675 25.4912 36.0635C26.188 37.5011 26.8807 38.9347 27.5734 40.3723C27.6255 40.4831 27.6736 40.602 27.7176 40.701C27.6896 40.7445 27.6816 40.7802 27.6615 40.7841C26.6685 41.0613 25.6714 41.3504 24.6383 41.0019C24.0096 40.792 23.3929 40.5584 22.7683 40.3327C22.492 40.2337 22.2117 40.1267 21.9354 40.0198C21.3347 39.7861 20.7341 39.5525 20.1334 39.3188C20.0453 39.2832 19.9532 39.2515 19.8611 39.2238C19.705 39.1763 19.5208 39.1208 19.4527 39.3347C19.3806 39.5604 19.5929 39.6 19.745 39.6673C19.749 39.6673 19.753 39.6673 19.757 39.6713C20.8062 40.1109 20.9463 41.5366 19.9933 42.1544C19.9773 42.1623 19.9613 42.1742 19.9492 42.1821C19.4207 42.5108 18.8881 42.8316 18.3515 43.1524L18.3836 43.3147L18.824 43.39C19.7891 42.7841 20.7982 42.2969 21.9154 42.095C22.7202 41.9484 23.5371 41.8811 24.35 41.798C25.5553 41.6791 26.7846 41.7702 27.9619 41.4019C27.9859 41.394 28.0139 41.4098 28.066 41.4217C28.118 41.5207 28.1741 41.6316 28.2302 41.7425C28.9629 43.2553 29.6957 44.7642 30.4285 46.277C32.5508 50.661 34.6691 55.049 36.7914 59.433C36.8675 59.5874 36.9155 59.829 37.1638 59.73C37.404 59.635 37.2919 59.4211 37.2439 59.2548C36.8995 57.9875 36.5511 56.7242 36.2067 55.4569C35.2097 51.8055 34.2166 48.1542 33.2235 44.5028C33.0513 43.8652 33.1755 43.287 33.5319 42.7484C33.7841 42.3682 34.1485 42.1861 34.613 42.2098C35.2417 42.2415 35.8464 42.3841 36.411 42.6494C37.0477 42.9504 37.6643 43.287 38.289 43.6078C38.4011 43.6672 38.5092 43.7424 38.6294 43.7781C38.8296 43.8414 39.0338 43.6712 39.0058 43.4613C38.9937 43.3662 38.9537 43.2751 38.9177 43.184C38.4772 42.1108 38.0367 41.0376 37.5962 39.9604C37.3199 39.2911 37.0476 38.6218 36.7673 37.9327C36.9155 37.8298 37.0396 37.7347 37.1678 37.6595C37.5962 37.4139 38.0327 37.1842 38.4532 36.9308C38.8776 36.6773 39.3061 36.4318 39.6985 36.1387C40.8277 35.2952 41.3883 34.1705 41.2762 32.7606L41.2682 32.7804ZM39.4142 28.2618C39.8907 28.1588 39.9828 28.2618 40.151 28.7133C40.2911 29.0974 40.2151 29.4578 40.0949 29.8142C39.9428 30.2617 39.7666 30.7013 39.5904 31.1607C39.5463 31.1686 39.4903 31.1963 39.4382 31.1884C38.261 31.0538 37.2399 31.4221 36.3349 32.1508C36.0266 32.3963 35.7302 32.6577 35.4179 32.8953C34.9974 33.2121 34.5009 33.2953 33.9763 33.1329C34.0885 33.0616 34.1806 33.0141 34.2606 32.9547C34.613 32.7012 34.9774 32.4597 35.3098 32.1785C35.478 32.0359 35.6061 31.8379 35.7102 31.6438C35.9825 31.129 35.8824 30.7449 35.4179 30.3964C35.3058 30.3132 35.1937 30.238 35.0415 30.1271C35.6862 29.4934 36.415 29.0895 37.2038 28.8202C37.9206 28.5786 38.6694 28.4162 39.4142 28.2578V28.2618ZM37.6523 23.652C37.7604 23.6283 37.8725 23.6045 37.9847 23.5966C38.3771 23.5768 38.6294 23.751 38.7295 24.1312C38.8055 24.4124 38.8776 24.7015 38.9097 24.9906C38.9777 25.6124 39.0378 26.2381 39.0658 26.8638C39.0778 27.1806 39.0098 27.4975 38.9777 27.8222C38.4091 27.9846 37.8645 28.1311 37.332 28.2974C36.447 28.5746 35.6461 28.9984 34.9334 29.5924C34.2526 30.1627 33.5559 30.7053 32.711 31.03C32.1744 31.2359 31.9181 31.2518 31.4056 31.0775C31.4897 30.9904 31.5577 30.9152 31.6338 30.8478C31.8821 30.6419 32.1384 30.4439 32.3826 30.234C32.9552 29.7469 32.9592 28.7053 32.3065 28.2974C32.2024 28.2341 32.1183 28.1351 31.9782 28.0123C32.699 27.347 33.3677 26.7054 34.0604 26.0955C34.6691 25.5569 35.3058 25.0421 35.9345 24.5273C36.439 24.1114 36.9996 23.7946 37.6483 23.652H37.6523ZM33.9563 21.2442C34.1685 21.0739 34.4448 20.967 34.7091 20.8799C35.1816 20.7175 35.6341 20.8046 36.0225 21.1175C36.6432 21.6125 37.0517 22.2224 37.0116 23.0501C37.0036 23.2243 36.9796 23.3788 36.7874 23.458C36.0185 23.7788 35.4339 24.357 34.8012 24.8678C34.597 25.0342 34.3968 25.2045 34.1445 25.4144C34.1045 24.8995 33.8282 24.5867 33.5158 24.2936C33.1354 23.9332 32.7951 23.8976 32.3306 24.159C31.9502 24.3728 31.5858 24.6104 31.3015 24.951C31.2614 25.0025 31.2014 25.0381 31.1053 25.1173C31.1453 24.654 31.3015 24.2857 31.5097 23.9411C32.1464 22.8877 32.9993 22.0165 33.9523 21.2402L33.9563 21.2442ZM25.7435 22.1471C26.8407 21.466 27.8618 20.8363 28.9389 20.167C28.3142 21.5887 27.2611 22.2462 25.7435 22.1471ZM24.5862 33.1884C24.5862 33.1884 24.6223 33.1527 24.6423 33.1369C24.7544 33.2082 24.8705 33.2755 24.9827 33.3468C25.8796 33.9566 26.7766 34.5665 27.6736 35.1724C27.8537 35.2912 28.0379 35.5249 28.2702 35.3744C28.5305 35.2041 28.3182 34.9625 28.2542 34.7685C27.3292 31.9567 26.3962 29.1449 25.4632 26.3331C25.4392 26.2579 25.4191 26.1787 25.3831 26.0638C26.1359 25.9886 26.7846 25.6876 27.4053 25.3312C27.6495 25.1926 27.8978 25.0381 28.082 24.8362C28.7587 24.1035 29.3353 23.2758 29.4755 22.2937C29.5956 21.4343 29.7918 20.5947 29.936 19.7472C29.984 19.4621 29.7598 19.2601 29.4715 19.3393C29.3273 19.3789 29.1952 19.474 29.0631 19.5532C27.8097 20.3135 26.5604 21.0779 25.307 21.8343C25.0547 21.9848 24.7824 22.1036 24.4741 22.262C24.0176 20.5947 23.5651 18.9631 23.0926 17.2443C23.3049 17.3196 23.449 17.3671 23.5852 17.4226C24.5662 17.8146 25.5473 18.2106 26.5283 18.6067C26.5804 18.6265 26.6324 18.6463 26.6845 18.67C26.8286 18.7255 27.0008 18.8284 27.113 18.6859C27.177 18.6027 27.157 18.4245 27.125 18.3017C26.4603 15.7196 25.7755 13.1455 25.1188 10.5634C24.2218 7.04667 23.3449 3.526 22.4599 0.00533247C22.4279 -0.113475 22.4119 -0.236243 22.3839 -0.370892C22.6041 -0.145157 33.0954 20.0561 33.4838 20.9947C33.3877 21.0898 33.2796 21.1967 33.1675 21.2996C32.4707 21.9373 31.83 22.6224 31.2975 23.4065C30.849 24.0639 30.6087 24.7768 30.5927 25.5648C30.5887 25.7431 30.5366 25.8856 30.4205 26.0203C30.2924 26.1708 30.1883 26.3371 30.0641 26.4876C29.8239 26.7727 29.7638 27.1094 29.7398 27.4618C29.7278 27.6757 29.8079 27.838 29.964 27.9806C30.2924 28.2776 30.3124 28.6697 30.0121 28.9944C29.7438 29.2835 29.4595 29.5568 29.2032 29.8498C28.8508 30.2498 28.4984 30.6498 28.1861 31.0855C28.0299 31.3072 27.9378 31.5844 27.8738 31.8537C27.7897 32.1824 27.9458 32.3646 28.2982 32.3686C28.4904 32.3686 28.6987 32.3409 28.8748 32.2696C29.4395 32.0518 29.9961 31.8102 30.5527 31.5726C30.873 31.434 31.4977 31.6557 31.6338 31.9607C31.6979 32.1072 31.6979 32.226 31.5738 32.3369C31.4496 32.4517 31.3215 32.5666 31.2214 32.6973C31.0612 32.9032 30.9731 33.1448 31.0892 33.3982C31.1973 33.6319 31.4336 33.6913 31.6659 33.6675C32.0703 33.624 32.4787 33.5685 32.8752 33.4854C33.0634 33.4458 33.2235 33.4458 33.4037 33.5131C33.5999 33.5883 33.8122 33.6161 34.0164 33.6794C34.2166 33.7388 34.2807 33.8537 34.2366 34.0517C34.1205 34.5665 34.2446 34.7249 34.7852 34.7685C34.8132 34.7685 34.8413 34.7764 34.9334 34.7923C36.0626 37.3783 37.0997 40.0396 38.1969 42.6732L38.1248 42.7286C38.0007 42.6455 37.8765 42.5662 37.7524 42.4831C35.7903 41.1366 33.8282 39.7941 31.8621 38.4476C31.758 38.3763 31.6578 38.2852 31.5457 38.2416C31.4496 38.206 31.2935 38.1862 31.2374 38.2416C31.1613 38.309 31.1053 38.4634 31.1293 38.5624C31.2254 38.9981 31.3535 39.4258 31.4736 39.8574C32.9713 45.3543 34.4729 50.8511 35.9705 56.3479C36.0105 56.4945 36.0386 56.641 36.0105 56.8113M40.167 35.0338C39.8547 35.4061 39.4903 35.7586 39.0858 36.0199C38.285 36.5348 37.4401 36.9823 36.5631 37.4892C36.1787 36.5506 35.8143 35.6635 35.4259 34.717C35.6301 34.7012 35.8183 34.6418 35.9785 34.6814C37.0036 34.9269 37.9286 34.5982 38.8536 34.2339C39.0098 34.1705 39.1739 34.1071 39.3021 34.0081C39.3702 33.9566 39.4222 33.8022 39.3942 33.7349C39.3621 33.6675 39.21 33.6081 39.1259 33.6279C38.9657 33.6636 38.8135 33.7547 38.6614 33.822C38.0647 34.0873 37.5322 34.1982 36.9876 34.1626C37.4321 33.5368 37.6883 32.9032 37.0997 32.1864C37.6083 31.8498 38.1608 31.6716 38.7535 31.6359C39.3021 31.6003 39.8467 31.6637 40.3712 31.8458C40.5514 31.9092 40.6475 32.0201 40.6916 32.1983C40.9639 33.228 40.8718 34.2022 40.171 35.0418L40.167 35.0338Z" fill="#1E1E1E"/>
<path d="M28.6867 31.8616C28.5225 31.9091 28.3703 31.7428 28.4344 31.5844C28.6787 30.9745 29.2233 30.4636 29.6717 30.0003C30.0762 29.5805 30.5127 29.1963 30.9852 28.8518C31.1614 28.7251 31.3816 28.5469 31.5978 28.4954C31.9702 28.4083 32.3867 28.9706 32.3747 29.2954C32.3666 29.4577 32.2866 29.6082 32.1905 29.7429C31.8141 30.2537 31.1854 30.6577 30.6488 30.9864C30.0401 31.3587 29.3794 31.6596 28.6907 31.8656L28.6867 31.8616Z" fill="#F16E79"/>
<path d="M33.6361 25.2837C33.6441 25.3946 33.6241 25.5094 33.576 25.6124C33.4118 25.9728 32.9553 26.2144 32.647 26.4441C32.0223 26.9193 31.3977 27.446 30.6248 27.6599C30.2845 27.7549 30.1443 27.6044 30.2284 27.2678C30.2724 27.0856 30.3485 26.8916 30.4607 26.7411C31.0293 25.9886 31.5979 25.1728 32.3987 24.6342C32.8232 24.3491 33.0795 24.4916 33.3918 24.8362C33.4719 24.9233 33.552 25.0144 33.596 25.1213C33.616 25.1728 33.6281 25.2243 33.6321 25.2758L33.6361 25.2837Z" fill="#F16E79"/>
<path d="M31.7822 33.2161C31.6861 33.1963 31.594 33.121 31.602 33.026C31.6061 32.9547 31.6661 32.8992 31.7222 32.8517C32.2027 32.424 32.6832 31.9963 33.1717 31.5765C33.5001 31.2953 33.8405 31.026 34.2209 30.8161C34.381 30.729 34.6013 30.5865 34.7895 30.5904C35.0337 30.5904 35.4102 30.9152 35.3981 31.1686C35.3941 31.2597 35.3461 31.3468 35.298 31.426C34.9376 31.9884 34.3931 32.4042 33.7884 32.6854C33.4801 32.828 33.1557 32.9428 32.8274 33.0299C32.523 33.1131 32.1306 33.2477 31.8143 33.224C31.8023 33.224 31.7903 33.224 31.7782 33.22L31.7822 33.2161Z" fill="#F16E79"/>
<path d="M34.6572 34.2379C34.6412 34.1983 34.6853 34.1587 34.7133 34.1349C35.1377 33.7428 35.5822 33.3706 36.0307 33.0062C36.1348 32.9191 36.2389 32.828 36.347 32.7449C36.4952 32.634 36.6914 32.626 36.8356 32.7449C37.0198 32.8953 36.9837 33.1488 36.9237 33.3547C36.8476 33.5963 36.6834 33.8022 36.4552 33.9171C35.9466 34.1666 35.394 34.3488 34.8174 34.3052C34.7773 34.3052 34.6772 34.2894 34.6572 34.2418V34.2379Z" fill="#F16E79"/>
<path d="M24.6422 33.1369C24.6422 33.1369 24.8705 33.2755 24.9826 33.3468C25.8796 33.9567 26.7765 34.5666 27.6735 35.1725C27.8537 35.2913 28.0379 35.525 28.2701 35.3745C28.5304 35.2042 28.3182 34.9626 28.2541 34.7685C27.3291 31.9568 26.3961 29.145 25.4631 26.3332C25.4391 26.2579 25.4191 26.1787 25.383 26.0639C26.1358 25.9886 26.7845 25.6877 27.4052 25.3312C27.6495 25.1926 27.8977 25.0382 28.0819 24.8362C28.7587 24.1036 29.3353 23.2759 29.4754 22.2937C29.5956 21.4343 29.7918 20.5948 29.9359 19.7473C29.984 19.4621 29.7597 19.2602 29.4714 19.3394C29.3273 19.379 29.1951 19.474 29.063 19.5532C27.8096 20.3136 26.5603 21.0779 25.3069 21.8343C25.0547 21.9848 24.7824 22.1036 24.474 22.262C24.0175 20.5948 23.5651 18.9631 23.0926 17.2444C23.3048 17.3196 23.4489 17.3672 23.5851 17.4226C24.5661 17.8147 25.5472 18.2107 26.5283 18.6067C26.5803 18.6265 26.6324 18.6463 26.6844 18.6701C26.8286 18.7255 27.0008 18.8285 27.1129 18.6859C27.177 18.6028 27.1569 18.4245 27.1249 18.3018C26.4602 15.7197 25.7754 13.1455 25.1187 10.5634C24.2218 7.04672 23.3448 3.52605 22.4599 0.00537506C22.4278 -0.113433 22.4118 -0.236201 22.3838 -0.37085C22.604 -0.145115 33.0953 20.0562 33.4837 20.9948C33.3876 21.0898 33.2795 21.1967 33.1674 21.2997C32.4706 21.9373 31.83 22.6224 31.2974 23.4066C30.8489 24.064 30.6086 24.7768 30.5926 25.5649C30.5886 25.7431 30.5366 25.8857 30.4204 26.0203C30.2923 26.1708 30.1882 26.3371 30.0641 26.4876C29.8238 26.7728 29.7637 27.1094 29.7397 27.4619C29.7277 27.6757 29.8078 27.8381 29.9639 27.9807C30.2923 28.2777 30.3123 28.6697 30.012 28.9945C29.7437 29.2836 29.4594 29.5568 29.2031 29.8499C28.8508 30.2499 28.4984 30.6499 28.186 31.0855C28.0299 31.3073 27.9378 31.5845 27.8737 31.8538C27.7896 32.1825 27.9458 32.3647 28.2982 32.3686C28.4904 32.3686 28.6986 32.3409 28.8748 32.2696C29.4394 32.0518 29.996 31.8102 30.5526 31.5726C30.8729 31.434 31.4976 31.6558 31.6337 31.9607C31.6978 32.1072 31.6978 32.2261 31.5737 32.3369C31.4496 32.4518 31.3214 32.5666 31.2213 32.6973C31.0611 32.9033 30.973 33.1448 31.0892 33.3983C31.1973 33.6319 31.4335 33.6913 31.6658 33.6676C32.0702 33.624 32.4787 33.5686 32.8751 33.4854C33.0633 33.4458 33.2235 33.4458 33.4037 33.5131C33.5999 33.5884 33.8121 33.6161 34.0163 33.6795C34.2165 33.7389 34.2806 33.8537 34.2365 34.0517C34.1204 34.5666 34.2446 34.725 34.7851 34.7685C34.8132 34.7685 34.8412 34.7765 34.9333 34.7923C36.0625 37.3784 37.0996 40.0396 38.1968 42.6732L38.1247 42.7287C38.0006 42.6455 37.8765 42.5663 37.7523 42.4831C35.7902 41.1366 33.8281 39.7941 31.862 38.4476C31.7579 38.3763 31.6578 38.2853 31.5457 38.2417C31.4495 38.206 31.2934 38.1862 31.2373 38.2417C31.1612 38.309 31.1052 38.4635 31.1292 38.5625C31.2253 38.9981 31.3534 39.4258 31.4736 39.8575C32.9712 45.3543 34.4728 50.8512 35.9704 56.348L36.3308 57.4965C32.5227 49.6235 28.3943 41.0654 24.5862 33.1924C24.6062 33.1765 24.6222 33.1567 24.6422 33.1409V33.1369Z" fill="#E1A026"/>
<path d="M24.4819 33.0259L24.6021 33.2239L24.6781 33.1605L24.4819 33.0259Z" fill="#E1A026"/>
<path d="M38.385 42.9584L38.1367 42.5544L37.8965 42.5822L38.385 42.9584Z" fill="#E1A026"/>
<mask id="mask1_0_1902" style="mask-type:luminance" maskUnits="userSpaceOnUse" x="3" y="8" width="40" height="45">
<path d="M22.7242 8.3418C11.9807 8.3418 3.23926 16.987 3.23926 27.6124V52.9343H42.2092V27.6124C42.2092 16.987 33.4678 8.3418 22.7242 8.3418Z" fill="white"/>
</mask>
<g mask="url(#mask1_0_1902)">
<path d="M9.58225 46.2178L-22.5684 82.066" stroke="#1E1E1E" stroke-width="8.23825" stroke-miterlimit="10"/>
<path d="M35.8706 46.198L67.5487 81.5473" stroke="#1E1E1E" stroke-width="8.23825" stroke-miterlimit="10"/>
</g>
</g>
<defs>
<clipPath id="clip0_0_1902">
<rect width="253" height="74" fill="white"/>
</clipPath>
</defs>
</svg>
