<svg width="209" height="47" viewBox="0 0 209 47" fill="none" xmlns="http://www.w3.org/2000/svg">
<g clip-path="url(#clip0_0_1975)">
<path d="M9.95047 0V45.2252H0V0H9.95047ZM18.4258 30.1901H7.49191V21.3871H16.2131C18.627 21.3871 20.4284 20.8666 21.6175 19.8302C22.8065 18.7893 23.3966 17.2146 23.3966 15.0928C23.3966 12.971 22.802 11.3964 21.6175 10.3555C20.4284 9.31459 18.627 8.7986 16.2131 8.7986H7.49191V0H18.4258C21.537 0 24.2503 0.631649 26.5659 1.89495C28.8769 3.15824 30.6828 4.91974 31.9702 7.17944C33.2621 9.43914 33.9058 12.0814 33.9058 15.0928C33.9058 18.1043 33.2621 20.7465 31.9702 23.0062C30.6828 25.2659 28.8769 27.0319 26.5659 28.2907C24.2503 29.554 21.537 30.1857 18.4258 30.1857V30.1901Z" fill="#282828"/>
<path d="M50.1145 0V45.2252H40.1641V0H50.1145Z" fill="#282828"/>
<path d="M69.2153 45.2252H59.5732V0H69.2153L82.7284 33.7354L96.2997 0H106.067V45.2252H96.4248V29.7008C96.4248 28.1128 96.4427 26.7872 96.4874 25.7286C96.5276 24.6699 96.5813 23.7402 96.6394 22.9484C96.702 22.1522 96.7914 21.3293 96.9165 20.4752L87.2745 45.2296H78.1868L68.6073 20.4752C68.8934 22.1477 69.0678 23.9582 69.1303 25.9154C69.1929 27.8726 69.2242 30.0923 69.2242 32.5788V45.2296L69.2153 45.2252Z" fill="#282828"/>
<path d="M116.402 0.943115V11.4409H114.091V0.943115H116.402ZM118.369 7.94908H115.83V5.90734H117.855C118.413 5.90734 118.834 5.78724 119.111 5.54703C119.388 5.30683 119.522 4.93763 119.522 4.44832C119.522 3.95902 119.383 3.58981 119.111 3.34961C118.834 3.1094 118.418 2.9893 117.855 2.9893H115.83V0.943115H118.369C119.093 0.943115 119.719 1.08991 120.26 1.38349C120.796 1.67707 121.216 2.08631 121.516 2.6112C121.815 3.13609 121.963 3.74995 121.963 4.44832C121.963 5.14669 121.815 5.76055 121.516 6.28544C121.216 6.81033 120.796 7.21957 120.26 7.51315C119.723 7.80673 119.093 7.95353 118.369 7.95353V7.94908Z" fill="#282828"/>
<path d="M126.093 11.6232C125.382 11.6232 124.748 11.4631 124.189 11.1428C123.635 10.8225 123.197 10.3777 122.879 9.81722C122.562 9.25674 122.401 8.6073 122.401 7.88224C122.401 7.15717 122.557 6.49439 122.866 5.93391C123.174 5.37343 123.603 4.92861 124.158 4.60834C124.707 4.28807 125.342 4.12793 126.053 4.12793C126.804 4.12793 127.448 4.28362 127.993 4.59055C128.534 4.89747 128.954 5.3334 129.249 5.89388C129.544 6.45435 129.692 7.12604 129.692 7.90003V8.45161L123.563 8.4783L123.59 7.13049H127.51C127.51 6.75239 127.381 6.44991 127.126 6.22749C126.871 6.00508 126.518 5.89388 126.071 5.89388C125.7 5.89388 125.4 5.96505 125.163 6.10739C124.931 6.24974 124.757 6.4677 124.645 6.76573C124.533 7.06376 124.475 7.44631 124.475 7.90893C124.475 8.57171 124.609 9.06102 124.882 9.37684C125.154 9.69267 125.575 9.8528 126.142 9.8528C126.563 9.8528 126.907 9.78163 127.184 9.63929C127.461 9.49694 127.635 9.29677 127.711 9.04322H129.723C129.598 9.82611 129.209 10.4533 128.556 10.9204C127.899 11.3874 127.081 11.6232 126.102 11.6232H126.093Z" fill="#282828"/>
<path d="M135.887 4.34596V6.40104H135.19C134.564 6.40104 134.072 6.55228 133.715 6.85476C133.357 7.15724 133.178 7.65989 133.178 8.35827V11.4364H130.983V4.35931H133.049L133.218 5.87615H133.017C133.111 5.40464 133.33 5.0132 133.665 4.70627C134.001 4.39934 134.461 4.24365 135.042 4.24365C135.176 4.24365 135.31 4.25255 135.449 4.26589C135.588 4.27924 135.731 4.30593 135.883 4.34596H135.887Z" fill="#282828"/>
<path d="M136.486 9.19897H138.569C138.587 9.44362 138.69 9.63934 138.868 9.78168C139.047 9.92403 139.306 9.9952 139.637 9.9952C139.968 9.9952 140.232 9.93737 140.393 9.82617C140.554 9.71051 140.634 9.56817 140.634 9.38579C140.634 9.28348 140.594 9.17672 140.513 9.07441C140.433 8.97211 140.259 8.88759 139.995 8.83421L138.685 8.54952C138.028 8.40718 137.541 8.18032 137.219 7.86005C136.897 7.54422 136.736 7.07271 136.736 6.44996C136.736 5.95621 136.866 5.53807 137.13 5.19556C137.389 4.8486 137.746 4.58615 138.193 4.39933C138.64 4.2125 139.15 4.12354 139.718 4.12354C140.285 4.12354 140.755 4.2214 141.179 4.42157C141.604 4.62174 141.93 4.89753 142.172 5.25783C142.413 5.61814 142.529 6.03627 142.529 6.52113H140.446C140.446 6.27648 140.375 6.08076 140.232 5.93396C140.089 5.78717 139.883 5.716 139.619 5.716C139.374 5.716 139.177 5.77383 139.029 5.89393C138.882 6.01403 138.81 6.16527 138.81 6.35655C138.81 6.65903 139.065 6.86809 139.579 6.9793L140.907 7.26399C141.497 7.38854 141.944 7.5976 142.252 7.89563C142.561 8.19367 142.717 8.62514 142.717 9.19452C142.717 9.69717 142.583 10.1286 142.319 10.4978C142.051 10.8671 141.685 11.1473 141.206 11.343C140.732 11.5387 140.183 11.6321 139.566 11.6321C138.627 11.6321 137.881 11.4097 137.326 10.9605C136.776 10.5112 136.499 9.92848 136.499 9.20786L136.486 9.19897Z" fill="#282828"/>
<path d="M143.455 7.87798C143.455 7.13068 143.625 6.47679 143.96 5.91186C144.295 5.35138 144.765 4.91101 145.355 4.59963C145.949 4.28826 146.624 4.13257 147.384 4.13257C148.144 4.13257 148.819 4.28826 149.409 4.59963C149.999 4.91101 150.46 5.35138 150.799 5.91186C151.135 6.47679 151.305 7.13068 151.305 7.87798C151.305 8.62528 151.135 9.27917 150.799 9.8352C150.464 10.3912 149.999 10.8272 149.409 11.1385C148.819 11.4499 148.144 11.6056 147.384 11.6056C146.624 11.6056 145.945 11.4499 145.355 11.1385C144.76 10.8272 144.295 10.3912 143.96 9.8352C143.625 9.27917 143.455 8.62528 143.455 7.87798ZM145.663 7.86463C145.663 8.22494 145.735 8.53632 145.882 8.80766C146.03 9.079 146.231 9.28362 146.49 9.43041C146.745 9.5772 147.045 9.64837 147.389 9.64837C147.733 9.64837 148.032 9.57275 148.287 9.43041C148.542 9.28362 148.743 9.07455 148.886 8.80766C149.029 8.53632 149.101 8.22494 149.101 7.86463C149.101 7.50433 149.029 7.19295 148.886 6.93051C148.743 6.66806 148.542 6.45899 148.287 6.3122C148.032 6.16541 147.733 6.09424 147.389 6.09424C147.045 6.09424 146.75 6.16986 146.49 6.3122C146.235 6.45899 146.03 6.66361 145.882 6.93051C145.735 7.1974 145.663 7.50878 145.663 7.86463Z" fill="#282828"/>
<path d="M154.773 11.4364H152.579V4.34595H154.644L154.787 5.08435C155.006 4.78187 155.305 4.54612 155.69 4.37708C156.074 4.20805 156.499 4.12354 156.964 4.12354C157.809 4.12354 158.466 4.38153 158.94 4.89753C159.409 5.41352 159.646 6.13413 159.646 7.05937V11.4409H157.451V7.58426C157.451 7.13943 157.339 6.78358 157.107 6.51223C156.879 6.24089 156.575 6.10745 156.195 6.10745C155.757 6.10745 155.413 6.23644 155.153 6.49889C154.899 6.75689 154.769 7.11275 154.769 7.55757V11.4453L154.773 11.4364Z" fill="#282828"/>
<path d="M163.37 11.6233C162.619 11.6233 162.024 11.4186 161.582 11.0049C161.139 10.5957 160.92 10.0441 160.92 9.35465C160.92 8.70076 161.143 8.18032 161.595 7.79333C162.046 7.40633 162.699 7.17947 163.553 7.11275L165.546 6.95706V6.84585C165.546 6.6101 165.497 6.41437 165.403 6.25869C165.31 6.103 165.171 5.9829 164.997 5.90283C164.822 5.82276 164.599 5.78272 164.335 5.78272C163.87 5.78272 163.517 5.86724 163.271 6.03627C163.025 6.20531 162.909 6.45441 162.909 6.77468H161.085C161.085 6.23644 161.224 5.76938 161.497 5.36904C161.774 4.97315 162.163 4.66622 162.672 4.44826C163.182 4.23029 163.772 4.12354 164.447 4.12354C165.122 4.12354 165.725 4.24809 166.208 4.49274C166.686 4.73739 167.053 5.0977 167.308 5.56921C167.558 6.04072 167.683 6.61899 167.683 7.29957V11.4409H165.743L165.6 10.5067C165.488 10.827 165.216 11.0939 164.796 11.3074C164.371 11.5209 163.897 11.6277 163.361 11.6277L163.37 11.6233ZM164.138 10.0041C164.559 10.0041 164.898 9.90179 165.167 9.69717C165.435 9.49255 165.564 9.19007 165.564 8.78083V8.39828L164.451 8.49615C163.977 8.53173 163.642 8.6118 163.446 8.7319C163.249 8.852 163.155 9.02104 163.155 9.2479C163.155 9.50145 163.235 9.69272 163.396 9.81727C163.557 9.94182 163.803 9.99965 164.138 9.99965V10.0041Z" fill="#282828"/>
<path d="M171.451 11.4365H169.256V0.74292H171.451V11.4365Z" fill="#282828"/>
<path d="M116.402 17.6284V28.1262H114.091V17.6284H116.402Z" fill="#282828"/>
<path d="M120.519 28.1261H118.324V21.0356H120.389L120.532 21.7741C120.751 21.4716 121.051 21.2358 121.435 21.0668C121.82 20.8977 122.245 20.8132 122.709 20.8132C123.554 20.8132 124.211 21.0712 124.685 21.5872C125.155 22.1032 125.391 22.8238 125.391 23.7491V28.1306H123.197V24.274C123.197 23.8291 123.085 23.4733 122.852 23.2019C122.624 22.9306 122.32 22.7971 121.941 22.7971C121.502 22.7971 121.158 22.9261 120.899 23.1886C120.644 23.4466 120.515 23.8024 120.515 24.2473V28.135L120.519 28.1261Z" fill="#282828"/>
<path d="M125.364 31.587L125.722 29.6564C125.825 29.692 125.919 29.7187 125.995 29.7276C126.071 29.7365 126.16 29.741 126.267 29.741C126.544 29.741 126.728 29.6653 126.822 29.5141C126.915 29.3629 126.965 29.1315 126.965 28.8202V21.0313H129.159V29.1004C129.159 29.8966 128.927 30.5372 128.462 31.022C127.997 31.5069 127.336 31.7516 126.482 31.7516C126.33 31.7516 126.169 31.7427 126.003 31.7249C125.838 31.7071 125.624 31.6581 125.369 31.5825L125.364 31.587ZM128.06 19.9282C127.707 19.9282 127.412 19.8081 127.17 19.5679C126.929 19.3276 126.808 19.0296 126.808 18.6827C126.808 18.3357 126.929 18.0377 127.17 17.8019C127.412 17.5661 127.711 17.446 128.06 17.446C128.408 17.446 128.694 17.5661 128.936 17.8019C129.177 18.0377 129.298 18.3312 129.298 18.6827C129.298 19.0341 129.177 19.3276 128.936 19.5679C128.694 19.8081 128.399 19.9282 128.06 19.9282Z" fill="#282828"/>
<path d="M135.543 21.0357H137.738V28.1262H135.673L135.529 27.3299C135.31 27.6235 134.998 27.8593 134.595 28.0372C134.193 28.2151 133.777 28.3086 133.348 28.3086C132.539 28.3086 131.9 28.055 131.43 27.5479C130.961 27.0408 130.724 26.3558 130.724 25.4839V21.0312H132.919V24.6921C132.919 25.2704 133.022 25.693 133.232 25.9599C133.442 26.2312 133.768 26.3647 134.215 26.3647C134.689 26.3647 135.029 26.2357 135.234 25.9732C135.44 25.7108 135.543 25.2927 135.543 24.7188V21.0312V21.0357Z" fill="#282828"/>
<path d="M144.295 21.0357V23.0907H143.598C142.972 23.0907 142.48 23.242 142.123 23.5445C141.765 23.8469 141.586 24.3496 141.586 25.048V28.1261H139.392V21.049H141.457L141.627 22.5658H141.426C141.519 22.0943 141.738 21.7029 142.074 21.396C142.409 21.089 142.869 20.9333 143.45 20.9333C143.585 20.9333 143.719 20.9422 143.857 20.9556C143.996 20.9689 144.139 20.9956 144.291 21.0357H144.295Z" fill="#282828"/>
<path d="M147.219 21.0357L149.315 27.1654L148.247 29.692L144.868 21.0401H147.219V21.0357ZM145.051 31.5291V29.7008H146.262C146.508 29.7008 146.714 29.6697 146.875 29.6074C147.036 29.5452 147.174 29.4429 147.286 29.3005C147.398 29.1582 147.505 28.958 147.599 28.7044L150.491 21.0312H152.771L149.15 29.6697C148.855 30.3903 148.497 30.9108 148.073 31.2355C147.648 31.5602 147.125 31.7248 146.499 31.7248C146.231 31.7248 145.981 31.707 145.735 31.6759C145.493 31.6447 145.261 31.5913 145.042 31.5291H145.051Z" fill="#282828"/>
<path d="M116.33 44.8159H114.091V34.3181H116.33L119.468 42.147L122.62 34.3181H124.886V44.8159H122.647V41.2129C122.647 40.8437 122.647 40.5367 122.66 40.2921C122.673 40.0474 122.682 39.8295 122.696 39.6471C122.709 39.4603 122.732 39.2734 122.758 39.0733L120.519 44.8204H118.409L116.187 39.0733C116.254 39.4603 116.295 39.8829 116.308 40.3366C116.321 40.7903 116.33 41.3063 116.33 41.8846V44.8204V44.8159Z" fill="#282828"/>
<path d="M128.958 44.9984C128.207 44.9984 127.613 44.7937 127.17 44.3801C126.728 43.9708 126.509 43.4192 126.509 42.7253C126.509 42.0714 126.732 41.551 127.184 41.164C127.635 40.777 128.288 40.5501 129.142 40.4834L131.135 40.3277V40.2121C131.135 39.9763 131.086 39.7806 130.992 39.6249C130.898 39.4692 130.76 39.3491 130.586 39.269C130.411 39.189 130.188 39.1489 129.924 39.1489C129.459 39.1489 129.106 39.2335 128.86 39.4025C128.614 39.5715 128.498 39.8206 128.498 40.1409H126.674C126.674 39.6027 126.813 39.1356 127.085 38.7353C127.363 38.3394 127.751 38.0324 128.261 37.8145C128.771 37.5965 129.361 37.4897 130.036 37.4897C130.711 37.4897 131.314 37.6143 131.797 37.8589C132.275 38.1036 132.642 38.4639 132.897 38.9354C133.147 39.4069 133.272 39.9852 133.272 40.6658V44.8071H131.332L131.189 43.873C131.077 44.1932 130.805 44.4601 130.384 44.6736C129.96 44.8872 129.486 44.9939 128.949 44.9939L128.958 44.9984ZM129.727 43.3837C130.147 43.3837 130.487 43.2813 130.755 43.0767C131.024 42.8721 131.153 42.5696 131.153 42.1604V41.7778L130.04 41.8757C129.566 41.9113 129.231 41.9914 129.034 42.1115C128.838 42.2316 128.744 42.4006 128.744 42.6275C128.744 42.881 128.824 43.0723 128.985 43.1968C129.146 43.3214 129.392 43.3837 129.727 43.3837Z" fill="#282828"/>
<path d="M134.332 42.574H136.415C136.432 42.8186 136.535 43.0143 136.714 43.1567C136.893 43.299 137.152 43.3702 137.483 43.3702C137.814 43.3702 138.077 43.3124 138.238 43.2012C138.399 43.09 138.48 42.9432 138.48 42.7608C138.48 42.6585 138.44 42.5517 138.359 42.4494C138.279 42.3471 138.104 42.267 137.841 42.2092L136.531 41.9245C135.874 41.7822 135.386 41.5553 135.065 41.235C134.743 40.9192 134.582 40.4477 134.582 39.825C134.582 39.3312 134.712 38.9131 134.975 38.5706C135.235 38.2236 135.592 37.9611 136.039 37.7743C136.486 37.5919 136.996 37.4985 137.563 37.4985C138.131 37.4985 138.6 37.5964 139.025 37.7966C139.45 37.9967 139.776 38.2725 140.018 38.6328C140.254 38.9931 140.375 39.4113 140.375 39.8961H138.292C138.292 39.6515 138.221 39.4558 138.077 39.309C137.934 39.1622 137.729 39.091 137.465 39.091C137.219 39.091 137.023 39.1488 136.875 39.2689C136.728 39.389 136.656 39.5403 136.656 39.7315C136.656 40.034 136.911 40.2431 137.425 40.3543L138.752 40.639C139.343 40.7635 139.79 40.9726 140.098 41.2706C140.406 41.5687 140.563 42.0001 140.563 42.5695C140.563 43.0722 140.429 43.5036 140.165 43.8728C139.897 44.242 139.53 44.5223 139.052 44.718C138.578 44.9137 138.028 45.0071 137.411 45.0071C136.473 45.0071 135.726 44.7847 135.172 44.3355C134.622 43.8862 134.345 43.3035 134.345 42.5829L134.332 42.574Z" fill="#282828"/>
<path d="M141.019 37.7211H145.922V39.536H141.019V37.7211ZM144.568 44.816H142.373V35.5237H144.568V44.816Z" fill="#282828"/>
<path d="M150.143 44.9984C149.432 44.9984 148.797 44.8383 148.238 44.518C147.684 44.1978 147.246 43.7529 146.929 43.1925C146.611 42.632 146.45 41.9825 146.45 41.2575C146.45 40.5324 146.607 39.8696 146.915 39.3092C147.224 38.7487 147.653 38.3039 148.207 37.9836C148.757 37.6633 149.392 37.5032 150.102 37.5032C150.853 37.5032 151.497 37.6589 152.042 37.9658C152.583 38.2727 153.003 38.7086 153.298 39.2691C153.593 39.834 153.741 40.5013 153.741 41.2753V41.8269L147.612 41.8535L147.639 40.5057H151.56C151.56 40.1276 151.43 39.8252 151.175 39.6027C150.92 39.3803 150.567 39.2691 150.12 39.2691C149.749 39.2691 149.45 39.3403 149.213 39.4826C148.98 39.625 148.806 39.8429 148.694 40.141C148.582 40.439 148.524 40.8216 148.524 41.2842C148.524 41.947 148.658 42.4363 148.931 42.7521C149.204 43.0679 149.624 43.228 150.192 43.228C150.612 43.228 150.956 43.1569 151.233 43.0145C151.51 42.8722 151.685 42.672 151.761 42.4185H153.772C153.647 43.2014 153.258 43.8286 152.606 44.3001C151.948 44.7671 151.13 45.0029 150.151 45.0029L150.143 44.9984Z" fill="#282828"/>
<path d="M159.936 37.721V39.776H159.239C158.613 39.776 158.122 39.9273 157.764 40.2298C157.406 40.5322 157.228 41.0349 157.228 41.7333V44.8114H155.033V37.7343H157.098L157.268 39.2512H157.067C157.16 38.7796 157.38 38.3882 157.715 38.0813C158.05 37.7743 158.51 37.6187 159.092 37.6187C159.226 37.6187 159.36 37.6276 159.498 37.6409C159.637 37.6542 159.78 37.6809 159.932 37.7165L159.936 37.721Z" fill="#282828"/>
<path d="M163.244 44.8159H161.049V37.721H163.101L163.342 38.9398L163.115 38.6863C163.258 38.4016 163.512 38.1347 163.883 37.8767C164.254 37.6231 164.733 37.4941 165.323 37.4941C165.949 37.4941 166.454 37.6498 166.834 37.9612C167.214 38.2726 167.495 38.6818 167.674 39.18H167.33C167.442 38.6774 167.719 38.2726 168.157 37.9612C168.595 37.6498 169.118 37.4941 169.726 37.4941C170.647 37.4941 171.335 37.7388 171.791 38.2237C172.247 38.713 172.475 39.3624 172.475 40.1764V44.8159H170.28V40.7858C170.28 40.341 170.173 40.0118 169.958 39.7939C169.744 39.5759 169.462 39.4692 169.109 39.4692C168.899 39.4692 168.698 39.5136 168.51 39.6026C168.322 39.6916 168.161 39.8473 168.041 40.0697C167.915 40.2921 167.853 40.6079 167.853 41.0127V44.8159H165.658V40.7858C165.658 40.341 165.555 40.0118 165.345 39.7983C165.135 39.5848 164.853 39.4781 164.505 39.4781C164.295 39.4781 164.093 39.5225 163.897 39.6115C163.7 39.7005 163.544 39.8561 163.418 40.0786C163.293 40.301 163.235 40.6124 163.235 41.0082V44.8115L163.244 44.8159Z" fill="#282828"/>
<path d="M175.13 36.6179C174.777 36.6179 174.482 36.4978 174.24 36.2576C173.999 36.0173 173.878 35.7193 173.878 35.3723C173.878 35.0254 173.999 34.7274 174.24 34.4916C174.482 34.2558 174.781 34.1357 175.13 34.1357C175.479 34.1357 175.765 34.2558 176.006 34.4916C176.248 34.7274 176.368 35.0209 176.368 35.3723C176.368 35.7238 176.248 36.0173 176.006 36.2576C175.765 36.4978 175.47 36.6179 175.13 36.6179ZM174.048 44.8159V37.721H176.243V44.8159H174.048Z" fill="#282828"/>
<path d="M180.092 44.8159H177.897V37.7209H179.962L180.105 38.4594C180.324 38.1569 180.624 37.9211 181.008 37.7521C181.393 37.5831 181.817 37.4985 182.282 37.4985C183.127 37.4985 183.784 37.7565 184.258 38.2725C184.727 38.7885 184.964 39.5091 184.964 40.4344V44.8159H182.769V40.9593C182.769 40.5144 182.658 40.1586 182.425 39.8872C182.197 39.6159 181.893 39.4824 181.513 39.4824C181.075 39.4824 180.731 39.6114 180.472 39.8739C180.217 40.1319 180.087 40.4877 180.087 40.9326V44.8203L180.092 44.8159Z" fill="#282828"/>
<path d="M189.528 44.9983C188.844 44.9983 188.25 44.8471 187.745 44.5446C187.24 44.2421 186.851 43.8151 186.569 43.259C186.288 42.7075 186.149 42.0536 186.149 41.3107C186.149 40.5679 186.292 39.8917 186.578 39.3179C186.864 38.7441 187.271 38.2993 187.798 37.979C188.326 37.6587 188.952 37.4986 189.671 37.4986C190.118 37.4986 190.534 37.5786 190.919 37.7388C191.303 37.8989 191.602 38.1124 191.808 38.3749V34.1179H194.003V44.8115H191.938L191.826 43.904C191.634 44.2243 191.334 44.4867 190.919 44.6914C190.503 44.896 190.042 44.9983 189.528 44.9983ZM190.056 43.001C190.4 43.001 190.7 42.9299 190.959 42.7831C191.218 42.6363 191.424 42.4272 191.571 42.1603C191.719 41.889 191.79 41.5821 191.79 41.2306C191.79 40.8792 191.714 40.559 191.571 40.2965C191.424 40.0341 191.218 39.825 190.959 39.6782C190.7 39.5314 190.396 39.4602 190.056 39.4602C189.716 39.4602 189.412 39.5359 189.157 39.6871C188.903 39.8383 188.701 40.0474 188.567 40.3099C188.429 40.5768 188.362 40.8837 188.362 41.2306C188.362 41.5776 188.429 41.889 188.567 42.1514C188.706 42.4139 188.903 42.6229 189.157 42.7742C189.412 42.9254 189.712 43.001 190.056 43.001Z" fill="#282828"/>
<path d="M203.14 47.0001C202.004 47.0001 200.998 46.6709 200.113 46.0126C199.233 45.3543 198.535 44.4602 198.035 43.3303C197.53 42.2005 197.279 40.9327 197.279 39.5226C197.279 38.1126 197.53 36.8048 198.035 35.6883C198.54 34.5762 199.233 33.691 200.113 33.0327C200.994 32.3743 202.004 32.0452 203.14 32.0452C204.275 32.0452 205.281 32.3743 206.166 33.0327C207.046 33.691 207.739 34.5762 208.244 35.6883C208.75 36.8003 209 38.0814 209 39.5226C209 40.9639 208.75 42.2049 208.244 43.3303C207.739 44.4602 207.046 45.3543 206.166 46.0126C205.285 46.6709 204.275 47.0001 203.14 47.0001ZM203.14 46.0571C204.145 46.0571 205.013 45.7591 205.737 45.163C206.461 44.5669 207.029 43.7752 207.44 42.7876C207.847 41.8001 208.052 40.7103 208.052 39.5182C208.052 38.3261 207.847 37.2362 207.44 36.2487C207.029 35.2612 206.461 34.4695 205.737 33.8734C205.013 33.2773 204.145 32.9793 203.14 32.9793C202.134 32.9793 201.302 33.2773 200.565 33.8734C199.823 34.4695 199.251 35.2612 198.839 36.2487C198.428 37.2362 198.227 38.3261 198.227 39.5182C198.227 40.7103 198.433 41.8001 198.839 42.7876C199.251 43.7752 199.823 44.5669 200.565 45.163C201.307 45.7591 202.165 46.0571 203.14 46.0571ZM200.261 35.3813C200.735 35.3191 201.213 35.2657 201.705 35.2168C202.192 35.1678 202.688 35.1456 203.193 35.1456C204.297 35.1456 205.115 35.3813 205.652 35.8528C206.188 36.3244 206.456 36.9338 206.456 37.6855C206.456 38.3127 206.291 38.8465 205.96 39.2824C205.629 39.7228 205.227 40.0431 204.753 40.2477C204.279 40.4523 203.81 40.5546 203.336 40.5546C203.117 40.5546 202.889 40.5235 202.652 40.4612C202.415 40.3989 202.205 40.3055 202.013 40.181V39.9007C202.201 39.9319 202.375 39.963 202.532 39.9942C202.688 40.0253 202.831 40.0431 202.956 40.0431C203.461 40.0431 203.837 39.8652 204.092 39.5004C204.342 39.1401 204.472 38.6152 204.472 37.9257C204.472 37.2363 204.369 36.6402 204.163 36.2309C203.958 35.8262 203.681 35.6215 203.336 35.6215C203.149 35.6215 202.997 35.715 202.889 35.9018C202.778 36.0886 202.724 36.3555 202.724 36.7025V42.4852C202.724 42.7654 202.773 43.0101 202.867 43.2147C202.961 43.4193 203.117 43.5661 203.341 43.6595V43.8018H200.27V43.6595C200.489 43.5661 200.654 43.4148 200.766 43.2147C200.878 43.0101 200.931 42.7698 200.931 42.4852V36.7025C200.931 36.4222 200.878 36.1776 200.766 35.973C200.654 35.7683 200.489 35.6215 200.27 35.5281V35.3858L200.261 35.3813ZM202.764 40.2255H204.749C204.999 40.9149 205.299 41.6533 205.647 42.4362C205.992 43.2191 206.372 43.9397 206.783 44.5981C205.902 44.2556 205.098 43.7129 204.373 42.9745C203.649 42.2361 203.113 41.3197 202.769 40.2255H202.764Z" fill="#282828"/>
</g>
<defs>
<clipPath id="clip0_0_1975">
<rect width="209" height="47" fill="white"/>
</clipPath>
</defs>
</svg>
