<svg width="280" height="53" viewBox="0 0 280 53" fill="none" xmlns="http://www.w3.org/2000/svg">
<g clip-path="url(#clip0_0_1878)">
<path d="M176.931 52.1095C173.698 52.1095 171.076 51.7519 169.067 51.0401C167.058 50.3283 165.581 49.3501 164.649 48.1054C163.713 46.8607 163.246 45.4407 163.246 43.8453C163.246 41.5067 164.081 38.9962 165.75 36.314C167.419 33.6352 169.638 31.1353 172.405 28.8141C174.105 27.9832 175.637 26.3458 176.998 23.8984C178.358 21.4511 179.378 17.9729 180.062 13.4639C180.062 13.1869 179.999 12.9765 179.869 12.8258C179.743 12.6785 179.571 12.5908 179.357 12.5698C179.165 12.5698 178.996 12.6329 178.846 12.7627C178.695 12.8889 178.6 13.0502 178.558 13.243C177.748 18.3901 176.528 22.1138 174.887 24.4103C173.376 26.8366 171.248 28.1129 168.506 28.2391C166.889 28.2391 165.522 27.8043 164.407 26.9313C163.288 26.0583 162.443 24.8872 161.868 23.4216C161.293 21.9525 161.006 20.3361 161.006 18.5725C161.027 17.2752 161.146 16.069 161.356 14.9505C161.57 13.8321 161.942 12.6469 162.475 11.3917C163.306 9.3511 164.516 7.46826 166.114 5.74319C167.71 4.01813 169.687 2.63317 172.05 1.5778C174.41 0.525934 177.177 0 180.346 0C182.92 0 185.357 0.490871 187.653 1.46911C189.95 2.44734 191.812 3.90944 193.239 5.85539C194.662 7.80135 195.409 10.2206 195.472 13.1133C195.472 15.3047 195.1 17.752 194.354 20.4518C193.61 23.1551 192.565 25.5148 191.226 27.5344C190.63 27.4502 190.013 27.3871 189.375 27.3415L188.961 27.31C186.047 27.31 183.116 28.2496 180.171 30.1325C177.226 32.0153 174.922 34.6485 173.264 38.0285C173.201 38.1337 173.169 38.2529 173.169 38.3791C173.169 38.572 173.25 38.7403 173.407 38.891C173.569 39.0383 173.744 39.1154 173.933 39.1154C174.21 39.1154 174.445 38.9682 174.635 38.6701C176.188 35.5636 178.32 33.1478 181.033 31.4263C183.747 29.7012 186.429 28.8422 189.091 28.8422C191.387 28.8422 193.291 29.554 194.802 30.981C196.654 32.6815 197.579 35.213 197.579 38.5755C197.579 40.1287 197.25 41.703 196.591 43.2984C195.931 44.8937 194.82 46.3523 193.256 47.6706C191.692 48.989 189.582 50.0583 186.92 50.8788C184.263 51.6958 180.932 52.106 176.931 52.106V52.1095Z" fill="#3C94D1"/>
<path d="M206.895 48.3438C204.83 48.3438 203.014 47.7161 201.44 46.4609C199.865 45.2057 198.547 43.5192 197.481 41.4049C196.419 39.2872 195.616 36.91 195.072 34.2733C194.529 31.6366 194.259 28.9333 194.259 26.1669C194.259 23.4005 194.539 20.6832 195.104 18.0149C195.668 15.3467 196.513 12.9414 197.639 10.8026C198.764 8.66382 200.195 6.95629 201.93 5.68002C203.662 4.40376 205.689 3.76562 208.01 3.76562C210.096 3.76562 211.93 4.35116 213.515 5.51874C215.1 6.68982 216.418 8.26411 217.474 10.2416C218.525 12.2191 219.318 14.4701 219.851 16.9911C220.384 19.5121 220.65 22.1242 220.65 24.824C220.629 27.8043 220.324 30.6794 219.742 33.4563C219.156 36.2333 218.283 38.7367 217.126 40.9702C215.966 43.2036 214.535 44.9848 212.835 46.3136C211.134 47.6425 209.153 48.3087 206.899 48.3087V48.3402L206.895 48.3438ZM204.63 24.0912C204.799 24.0912 204.953 24.0316 205.093 23.9159C205.23 23.8002 205.321 23.6459 205.363 23.4531C205.598 21.7736 206.162 20.1888 207.053 18.6986C208.308 19.9328 209.616 20.89 210.976 21.5702C211.082 21.6123 211.19 21.6333 211.296 21.6333C211.488 21.6333 211.664 21.5597 211.821 21.4089C211.979 21.2617 212.06 21.0794 212.06 20.8655C212.06 20.5885 211.913 20.3536 211.615 20.1642C210.338 19.5471 209.115 18.6425 207.944 17.4504C209.115 15.9813 210.559 14.94 212.284 14.3229C212.624 14.1511 212.796 13.9196 212.796 13.6216C212.796 13.1097 212.53 12.8467 211.997 12.8257L211.772 12.8573C209.837 13.5585 208.221 14.698 206.923 16.2723C206.264 15.4413 205.784 14.5928 205.489 13.7198C205.317 13.3797 205.065 13.2079 204.725 13.2079C204.234 13.25 203.992 13.5164 203.992 14.0073L204.024 14.2317C204.469 15.3607 205.128 16.4652 206.001 17.5486C204.83 19.2281 204.118 21.167 203.862 23.3549C203.862 23.7791 204.118 24.0246 204.627 24.0877L204.63 24.0912Z" fill="#3C94D1"/>
<path d="M233.251 52.1095C230.019 52.1095 227.396 51.7519 225.387 51.0401C223.378 50.3283 221.902 49.3501 220.969 48.1054C220.033 46.8607 219.567 45.4407 219.567 43.8453C219.567 41.5067 220.401 38.9962 222.07 36.314C223.739 33.6352 225.958 31.1353 228.725 28.8141C230.425 27.9832 231.958 26.3458 233.318 23.8984C234.678 21.4511 235.699 17.9729 236.382 13.4639C236.382 13.1869 236.319 12.9765 236.19 12.8258C236.063 12.6785 235.892 12.5908 235.678 12.5698C235.485 12.5698 235.317 12.6329 235.166 12.7627C235.015 12.8889 234.92 13.0502 234.878 13.243C234.068 18.3901 232.848 22.1138 231.207 24.4103C229.696 26.8366 227.568 28.1129 224.826 28.2391C223.21 28.2391 221.842 27.8043 220.727 26.9313C219.609 26.0583 218.764 24.8872 218.189 23.4216C217.614 21.9525 217.326 20.3361 217.326 18.5725C217.347 17.2752 217.466 16.069 217.677 14.9505C217.891 13.8321 218.262 12.6469 218.795 11.3917C219.626 9.3511 220.836 7.46826 222.435 5.74319C224.03 4.01813 226.008 2.63317 228.371 1.5778C230.73 0.525934 233.497 0 236.666 0C239.24 0 241.677 0.490871 243.973 1.46911C246.27 2.44734 248.132 3.90944 249.559 5.85539C250.982 7.80135 251.729 10.2206 251.792 13.1133C251.792 15.3047 251.421 17.752 250.674 20.4518C249.931 23.1551 248.886 25.5148 247.546 27.5344C246.95 27.4502 246.333 27.3871 245.695 27.3415L245.281 27.31C242.368 27.31 239.436 28.2496 236.491 30.1325C233.546 32.0153 231.242 34.6485 229.584 38.0285C229.521 38.1337 229.489 38.2529 229.489 38.3791C229.489 38.572 229.57 38.7403 229.728 38.891C229.889 39.0383 230.064 39.1154 230.254 39.1154C230.531 39.1154 230.766 38.9682 230.955 38.6701C232.508 35.5636 234.64 33.1478 237.354 31.4263C240.068 29.7012 242.75 28.8422 245.411 28.8422C247.708 28.8422 249.611 29.554 251.123 30.981C252.974 32.6815 253.9 35.213 253.9 38.5755C253.9 40.1287 253.57 41.703 252.911 43.2984C252.252 44.8937 251.14 46.3523 249.576 47.6706C248.013 48.989 245.902 50.0583 243.241 50.8788C240.583 51.6958 237.252 52.106 233.251 52.106V52.1095Z" fill="#3C94D1"/>
<path d="M264.555 47.257C262.196 47.257 260.141 46.8573 258.398 46.0613C256.652 45.2619 255.208 44.196 254.058 42.8531C252.908 41.5103 252.049 40.0236 251.474 38.3862C250.899 36.7488 250.601 35.0693 250.58 33.3443C250.58 31.4088 250.951 29.5891 251.698 27.8886C252.441 26.1881 253.553 24.8101 255.032 23.7547C256.512 22.7029 258.356 22.1769 260.569 22.1769C262.655 22.1769 264.457 22.7309 265.979 23.8354C267.501 24.9434 268.472 26.6965 268.9 29.1017C268.942 29.2946 269.036 29.4524 269.187 29.5821C269.334 29.7083 269.506 29.7749 269.699 29.7749C269.913 29.7539 270.081 29.6697 270.211 29.519C270.337 29.3717 270.404 29.1999 270.404 29.0071V28.8808C269.913 26.0513 268.756 23.9791 266.926 22.6573C265.095 21.339 262.967 20.6798 260.544 20.6798C258.567 20.6798 256.842 21.0514 255.376 21.7983C254.994 19.2457 254.493 16.9071 253.875 14.7788C253.598 13.6954 253.353 12.6856 253.143 11.7459C252.929 10.8098 252.824 9.96827 252.824 9.22496C252.824 8.18361 253.094 7.34211 253.637 6.70398C254.18 6.06585 255.099 5.59952 256.396 5.30149C257.694 5.00346 259.492 4.8562 261.789 4.8562C267.02 4.8562 270.839 5.55745 273.244 6.96344C275.242 8.13452 276.242 9.63518 276.242 11.4619C276.242 12.4191 275.972 13.3342 275.428 14.2073C274.885 15.0803 274.233 15.7606 273.465 16.2479C272.125 15.715 270.604 15.4485 268.903 15.4485C266.775 15.4485 264.373 15.9289 261.691 16.8861C261.351 17.0333 261.179 17.2577 261.179 17.5557C261.179 18.0677 261.435 18.3341 261.943 18.3552L262.199 18.3236C264.71 17.4295 266.943 16.9842 268.9 16.9842C271.389 16.9842 273.451 17.5908 275.092 18.804C276.729 20.0171 277.956 21.6019 278.777 23.5584C279.594 25.5149 280.004 27.6326 280.004 29.9082C280.004 31.9488 279.674 33.9964 279.015 36.0511C278.356 38.1057 277.378 39.9745 276.08 41.668C274.783 43.358 273.17 44.715 271.245 45.7353C269.32 46.7556 267.09 47.2675 264.559 47.2675L264.555 47.257Z" fill="#3C94D1"/>
<path d="M7.80485 10.8975V46.5452H0V10.8975H7.80485ZM14.4527 34.6977H5.87643V27.7589H12.7171C14.6104 27.7589 16.0234 27.3487 16.9561 26.5317C17.8888 25.7113 18.3516 24.4701 18.3516 22.7976C18.3516 21.1251 17.8852 19.8839 16.9561 19.0635C16.0234 18.243 14.6104 17.8363 12.7171 17.8363H5.87643V10.8975H14.4527C16.893 10.8975 19.0213 11.3953 20.8375 12.3911C22.6502 13.3869 24.0667 14.7753 25.0765 16.5565C26.0898 18.3377 26.5947 20.4169 26.5947 22.7941C26.5947 25.1713 26.0898 27.2505 25.0765 29.0317C24.0667 30.8128 22.6502 32.2048 20.8375 33.197C19.0213 34.1928 16.893 34.6907 14.4527 34.6907V34.6977Z" fill="#282828"/>
<path d="M39.3083 10.8975V46.5452H31.5034V10.8975H39.3083Z" fill="#282828"/>
<path d="M54.2905 46.5487H46.7275V10.8975H54.2905L64.8898 37.4887L75.5347 10.8975H83.1958V46.5452H75.6328V34.3085C75.6328 33.0568 75.6469 32.0119 75.6819 31.1775C75.7135 30.343 75.7556 29.6137 75.8011 28.9861C75.8502 28.3585 75.9204 27.7098 76.0185 27.0366L68.4556 46.5452H61.3275L53.8136 27.0366C54.038 28.3549 54.1748 29.782 54.2238 31.3247C54.2729 32.8675 54.2975 34.6171 54.2975 36.577V46.5487H54.2905Z" fill="#282828"/>
<path d="M88.3989 34.4068C88.3989 31.9349 88.9284 29.7435 89.9872 27.8326C91.0461 25.9217 92.5012 24.421 94.3455 23.3271C96.1933 22.2367 98.318 21.6897 100.73 21.6897C104.296 21.6897 107.185 22.6048 109.401 24.4351C111.617 26.2653 112.837 28.7547 113.062 31.9033H105.593C105.337 30.6832 104.829 29.7821 104.075 29.207C103.321 28.6285 102.301 28.341 101.018 28.341C99.9905 28.341 99.0824 28.5899 98.297 29.0878C97.5081 29.5857 96.9085 30.2835 96.4913 31.1846C96.0741 32.0856 95.8637 33.1586 95.8637 34.4138C95.8637 35.669 96.0635 36.798 96.4667 37.7131C96.8665 38.6283 97.445 39.326 98.2023 39.8099C98.9562 40.2902 99.8643 40.5321 100.923 40.5321C102.238 40.5321 103.29 40.2341 104.079 39.6416C104.864 39.049 105.373 38.1549 105.597 36.9663H113.065C112.904 38.9894 112.287 40.7636 111.21 42.2888C110.134 43.814 108.714 45.0096 106.947 45.8791C105.18 46.7452 103.174 47.1799 100.927 47.1799C98.3882 47.1799 96.1827 46.6505 94.3034 45.5916C92.4241 44.5327 90.9725 43.0461 89.9452 41.1352C88.9178 39.2243 88.4024 36.9838 88.4024 34.4138L88.3989 34.4068Z" fill="#282828"/>
<path d="M115.807 34.4558C115.807 31.9208 116.379 29.6944 117.518 27.7835C118.658 25.8726 120.232 24.386 122.238 23.3271C124.243 22.2682 126.533 21.7388 129.103 21.7388C131.673 21.7388 133.952 22.2682 135.943 23.3271C137.935 24.386 139.499 25.8726 140.642 27.7835C141.781 29.6944 142.353 31.9173 142.353 34.4558C142.353 36.9943 141.781 39.2103 140.642 41.1036C139.502 43.0005 137.935 44.4766 135.943 45.5355C133.952 46.5944 131.673 47.1238 129.103 47.1238C126.533 47.1238 124.243 46.5944 122.238 45.5355C120.228 44.4766 118.658 42.997 117.518 41.1036C116.379 39.2103 115.807 36.9943 115.807 34.4558ZM123.275 34.4068C123.275 35.6269 123.524 36.6963 124.022 37.6114C124.52 38.5266 125.204 39.2348 126.07 39.7292C126.936 40.2271 127.949 40.476 129.106 40.476C130.263 40.476 131.273 40.2271 132.143 39.7292C133.009 39.2313 133.685 38.5266 134.166 37.6114C134.646 36.6963 134.888 35.6269 134.888 34.4068C134.888 33.1866 134.646 32.1277 134.166 31.2266C133.685 30.329 133.009 29.6278 132.143 29.1299C131.277 28.632 130.263 28.3831 129.106 28.3831C127.949 28.3831 126.939 28.632 126.07 29.1299C125.204 29.6278 124.52 30.3255 124.022 31.2266C123.524 32.1277 123.275 33.1866 123.275 34.4068Z" fill="#282828"/>
<path d="M154.06 46.5488H146.641V22.4611H153.625L154.105 24.9645C154.845 23.9372 155.862 23.1343 157.163 22.5557C158.464 21.9772 159.901 21.6897 161.475 21.6897C164.333 21.6897 166.559 22.5663 168.148 24.3159C169.736 26.0655 170.532 28.5163 170.532 31.6614V46.5488H163.113V33.4461C163.113 31.9384 162.727 30.7252 161.956 29.8101C161.184 28.895 160.157 28.4357 158.874 28.4357C157.398 28.4357 156.223 28.8775 155.357 29.761C154.491 30.6446 154.056 31.8402 154.056 33.3514V46.5523L154.06 46.5488Z" fill="#282828"/>
<path d="M177.391 33.7125C176.5 33.7125 175.711 33.453 175.017 32.9341C174.326 32.4152 173.779 31.7104 173.386 30.8198C172.99 29.9293 172.794 28.93 172.794 27.8185C172.794 26.707 172.99 25.6762 173.386 24.7962C173.783 23.9196 174.326 23.2219 175.017 22.7029C175.708 22.184 176.5 21.9246 177.391 21.9246C178.281 21.9246 179.07 22.184 179.764 22.7029C180.455 23.2219 180.998 23.9196 181.395 24.7962C181.791 25.6727 181.987 26.6825 181.987 27.8185C181.987 28.9545 181.791 29.9328 181.395 30.8198C180.998 31.7104 180.455 32.4152 179.764 32.9341C179.074 33.453 178.281 33.7125 177.391 33.7125ZM177.391 32.9692C178.179 32.9692 178.86 32.7342 179.428 32.2644C179.996 31.7946 180.441 31.1705 180.764 30.3921C181.083 29.6137 181.244 28.7547 181.244 27.815C181.244 26.8753 181.083 26.0163 180.764 25.2379C180.441 24.4596 179.996 23.8355 179.428 23.3656C178.86 22.8958 178.179 22.6609 177.391 22.6609C176.602 22.6609 175.95 22.8958 175.371 23.3656C174.789 23.8355 174.34 24.4596 174.018 25.2379C173.695 26.0163 173.537 26.8753 173.537 27.815C173.537 28.7547 173.699 29.6137 174.018 30.3921C174.34 31.1705 174.789 31.7946 175.371 32.2644C175.953 32.7342 176.626 32.9692 177.391 32.9692ZM175.129 24.5542C175.501 24.5051 175.876 24.4631 176.262 24.4245C176.644 24.3859 177.033 24.3684 177.429 24.3684C178.295 24.3684 178.937 24.5542 179.358 24.9259C179.778 25.2975 179.989 25.7779 179.989 26.3705C179.989 26.8648 179.859 27.2856 179.6 27.6292C179.34 27.9763 179.025 28.2288 178.653 28.39C178.281 28.5513 177.913 28.632 177.541 28.632C177.37 28.632 177.191 28.6074 177.005 28.5583C176.819 28.5092 176.654 28.4356 176.504 28.3374V28.1166C176.651 28.1411 176.788 28.1656 176.91 28.1902C177.033 28.2147 177.145 28.2288 177.243 28.2288C177.64 28.2288 177.934 28.0885 178.134 27.801C178.33 27.517 178.432 27.1033 178.432 26.5598C178.432 26.0163 178.351 25.5465 178.19 25.2239C178.029 24.9049 177.811 24.7436 177.541 24.7436C177.394 24.7436 177.275 24.8172 177.191 24.9645C177.103 25.1117 177.061 25.3221 177.061 25.5956V30.1537C177.061 30.3746 177.1 30.5674 177.173 30.7287C177.247 30.89 177.37 31.0057 177.545 31.0793V31.1915H175.136V31.0793C175.308 31.0057 175.438 30.8865 175.525 30.7287C175.613 30.5674 175.655 30.3781 175.655 30.1537V25.5956C175.655 25.3747 175.613 25.1818 175.525 25.0206C175.438 24.8593 175.308 24.7436 175.136 24.6699V24.5577L175.129 24.5542ZM177.093 28.3725H178.649C178.846 28.916 179.081 29.498 179.354 30.1151C179.624 30.7322 179.922 31.3002 180.245 31.8191C179.554 31.5491 178.923 31.1214 178.355 30.5394C177.787 29.9573 177.366 29.235 177.096 28.3725H177.093Z" fill="#282828"/>
</g>
<defs>
<clipPath id="clip0_0_1878">
<rect width="280" height="52.1095" fill="white"/>
</clipPath>
</defs>
</svg>
