<svg width="56" height="56" viewBox="0 0 56 56" fill="none" xmlns="http://www.w3.org/2000/svg">
<g clip-path="url(#clip0_34_858)">
<path d="M56 0H0V56H56V0Z" fill="#FEEACD"/>
<path d="M22.53 34.7702L23.06 33.8902L26.41 28.3402C24.94 27.3702 21.98 25.4302 21.96 25.4202L22.14 24.6402L24.71 13.3202C22.16 13.3602 19.73 13.7402 17.5 14.3802C17.85 15.2702 18.49 16.8102 18.49 16.8102L17.45 17.1002C17.45 17.1002 17.16 16.0002 16.29 14.7502C16.29 14.7502 16.29 14.7502 16.29 14.7402C16.29 14.7402 16.28 14.7402 16.27 14.7402C13.11 10.8202 7.48002 10.0702 3.75002 12.2202C3.19002 12.5402 3.44002 13.5302 4.06002 13.4702C6.06002 13.2702 8.09002 14.6402 9.45002 18.5402C8.00002 19.8002 6.85002 21.2302 6.09002 22.7902C5.69002 23.6202 4.88002 24.1702 3.95002 24.1702H2.56002C1.85002 24.1702 1.27002 24.7502 1.27002 25.4602V32.0702C1.27002 32.7801 1.85002 33.3602 2.56002 33.3602H6.08002C6.75002 33.3602 7.39002 33.6301 7.82002 34.1402C9.01002 35.5401 10.54 36.7701 12.34 37.8001L14.21 44.3902C14.3 44.7202 14.61 44.9502 14.95 44.9502H18.9C19.33 44.9502 19.67 44.6002 19.67 44.1802V40.4902C21.25 40.8002 22.91 40.9701 24.63 41.0101L26.94 37.2902C25.5 36.4702 22.95 35.0102 22.53 34.7702ZM11.8 23.9902C11.06 23.9902 10.45 23.3902 10.45 22.6402C10.45 21.8902 11.05 21.2902 11.8 21.2902C12.55 21.2902 13.15 21.8902 13.15 22.6402C13.15 23.3902 12.55 23.9902 11.8 23.9902Z" fill="#FFA400"/>
<path d="M29.5201 13.6301L24.3501 24.6001C25.7901 25.5501 28.7601 27.5101 29.1101 27.7301C29.0401 27.8501 26.4501 32.1401 25.3001 34.0501L28.8301 36.0701L29.9001 36.6801L29.1301 37.5401L26.0401 41.0001C28.0201 40.9401 29.9201 40.6901 31.7201 40.2601V44.1801C31.7201 44.6101 32.0701 44.9501 32.4901 44.9501H36.4401C36.7901 44.9501 37.0901 44.7201 37.1801 44.3901L39.2701 37.0401C42.9901 34.5201 45.3001 31.0301 45.3001 27.1501C45.3001 20.5201 38.5401 14.9901 29.5201 13.6201V13.6301Z" fill="#FFA400"/>
<path d="M54.65 15.3301C53.86 13.5501 51.71 13.0601 50 13.4901C48.67 13.8201 47.51 14.6201 46.81 15.6801C46.71 15.8401 46.61 16.0001 46.53 16.1601C45.35 16.3701 44.18 17.0101 43.16 18.0101C42.76 18.4001 42.76 19.0301 43.14 19.4201C43.53 19.8201 44.16 19.8201 44.55 19.4401C45.03 18.9701 45.55 18.6201 46.08 18.3901C46.11 18.8201 46.2 19.2501 46.36 19.6701C46.95 21.2301 47.94 22.0201 49.3 22.0201H49.32C50.26 22.0201 51.07 21.5501 51.44 20.8101C51.8 20.0801 51.77 19.2401 51.35 18.4401C50.87 17.5201 49.88 16.7101 48.84 16.3301C49.27 15.9101 49.84 15.5901 50.48 15.4201C51.37 15.2001 52.48 15.4001 52.81 16.1301C53.03 16.6301 53.63 16.8601 54.13 16.6401C54.63 16.4201 54.86 15.8201 54.64 15.3201L54.65 15.3301ZM49.6 19.3801C49.77 19.7101 49.69 19.8801 49.67 19.9301C49.66 19.9601 49.52 20.0201 49.33 20.0301C49.11 20.0301 48.65 20.0301 48.25 18.9801C48.15 18.7201 48.1 18.4501 48.09 18.1901C48.69 18.3801 49.34 18.8801 49.61 19.3801H49.6Z" fill="#FFA400"/>
</g>
<defs>
<clipPath id="clip0_34_858">
<rect width="56" height="56" fill="white"/>
</clipPath>
</defs>
</svg>
