<svg width="56" height="56" viewBox="0 0 56 56" fill="none" xmlns="http://www.w3.org/2000/svg">
<g clip-path="url(#clip0_34_848)">
<path d="M56 0H0V56H56V0Z" fill="#FEEACD"/>
<path d="M24.03 22.1706C24.37 21.3406 23.97 20.3906 23.14 20.0606L15.07 16.7706C14.24 16.4306 13.29 16.8306 12.96 17.6606L10.58 23.5106C10.24 24.3406 10.64 25.2906 11.47 25.6206L15.91 27.4306C18.88 28.8906 20.27 32.4206 19 35.5306C17.67 38.7906 13.96 40.3506 10.7 39.0206C7.43995 37.6906 5.87995 33.9806 7.20995 30.7206C7.96995 28.8506 9.51995 27.5506 11.31 27.0206L9.55995 26.3106C8.82995 26.0106 8.46995 25.1706 8.76995 24.4306L10.29 20.6906C6.35995 21.5806 2.91995 24.3006 1.28995 28.3106C-1.37005 34.8306 1.76995 42.2806 8.28995 44.9306C14.81 47.5906 22.26 44.4506 24.91 37.9306C26.75 33.4106 25.8 28.4706 22.89 24.9606L24.03 22.1506V22.1706ZM19.2 22.7906C18.82 23.7106 17.77 24.1606 16.85 23.7806C15.93 23.4006 15.48 22.3506 15.86 21.4306C16.24 20.5106 17.29 20.0606 18.21 20.4406C19.13 20.8206 19.58 21.8706 19.2 22.7906Z" fill="#FFA400"/>
<path d="M54.7199 28.3106C53.0899 24.3006 49.6399 21.5806 45.7199 20.6906L47.2399 24.4306C47.5399 25.1606 47.1799 26.0106 46.4499 26.3106L44.6999 27.0206C46.4999 27.5506 48.0399 28.8506 48.7999 30.7206C50.1299 33.9806 48.5599 37.6906 45.3099 39.0206C42.0499 40.3506 38.3399 38.7806 37.0099 35.5306C35.7399 32.4106 37.1299 28.8906 40.0999 27.4306L44.5399 25.6206C45.3699 25.2806 45.7699 24.3306 45.4299 23.5106L43.0499 17.6606C42.7099 16.8306 41.7599 16.4306 40.9399 16.7706L32.8699 20.0606C32.0399 20.4006 31.6399 21.3506 31.9799 22.1706L33.1199 24.9806C30.1999 28.4806 29.2599 33.4306 31.0999 37.9506C33.7599 44.4706 41.1999 47.6106 47.7199 44.9506C54.2399 42.2906 57.3799 34.8506 54.7199 28.3306V28.3106ZM37.7999 20.4406C38.7199 20.0606 39.7799 20.5106 40.1499 21.4306C40.5299 22.3506 40.0799 23.4106 39.1599 23.7806C38.2399 24.1606 37.1799 23.7106 36.8099 22.7906C36.4399 21.8706 36.8799 20.8106 37.7999 20.4406Z" fill="#FFA400"/>
<path d="M33.1099 16.4302C33.4499 16.5802 33.8099 16.6602 34.1699 16.6602C34.4899 16.6602 34.8099 16.6002 35.1099 16.4802C35.2099 16.4402 35.2999 16.3902 35.3999 16.3402L36.6099 17.5502C36.7599 17.7002 36.9499 17.7702 37.1399 17.7702C37.3299 17.7702 37.5199 17.7002 37.6699 17.5502C37.9599 17.2602 37.9599 16.7802 37.6699 16.4902L36.4699 15.2902C36.4999 15.2302 36.5499 15.1702 36.5699 15.1102C36.8499 14.4702 36.8699 13.7602 36.6199 13.1002C36.3699 12.4402 35.8799 11.9302 35.2399 11.6402L32.3399 10.3502C31.0199 9.77018 29.4599 10.3502 28.8799 11.6802C28.8399 11.7602 28.8199 11.8502 28.7999 11.9302H27.2799C27.2499 11.8502 27.2299 11.7602 27.1999 11.6802C26.6099 10.3602 25.0499 9.76018 23.7399 10.3502L20.8399 11.6402C19.5199 12.2302 18.9199 13.7802 19.5099 15.1002C19.5399 15.1702 19.5799 15.2202 19.6099 15.2802L18.4099 16.4802C18.1199 16.7702 18.1199 17.2502 18.4099 17.5402C18.5599 17.6902 18.7499 17.7602 18.9399 17.7602C19.1299 17.7602 19.3199 17.6902 19.4699 17.5402L20.6799 16.3302C20.7699 16.3802 20.8699 16.4302 20.9699 16.4702C21.2799 16.5902 21.5999 16.6502 21.9099 16.6502C22.2699 16.6502 22.6299 16.5702 22.9699 16.4202L25.8699 15.1302C26.5099 14.8502 26.9999 14.3302 27.2499 13.6702C27.2799 13.5802 27.2999 13.5002 27.3199 13.4102H28.7599C28.7799 13.5002 28.7999 13.5802 28.8299 13.6702C29.0799 14.3302 29.5699 14.8402 30.2099 15.1302L33.1099 16.4202V16.4302ZM25.2599 13.7702L22.3599 15.0602C22.1999 15.1302 22.0399 15.1502 21.8699 15.1502L22.3199 14.7002C22.6099 14.4102 22.6099 13.9302 22.3199 13.6402C22.0299 13.3502 21.5499 13.3502 21.2599 13.6402L20.7899 14.1102C20.7599 13.6502 20.9999 13.2102 21.4399 13.0102L24.3399 11.7202C24.7699 11.5302 25.2499 11.6302 25.5699 11.9302H24.9999C24.5899 11.9302 24.2499 12.2702 24.2499 12.6802C24.2499 13.0902 24.5899 13.4302 24.9999 13.4302H25.6699C25.5599 13.5802 25.4299 13.7002 25.2499 13.7802L25.2599 13.7702ZM31.0799 13.4202C31.4899 13.4202 31.8299 13.0802 31.8299 12.6702C31.8299 12.2602 31.4899 11.9202 31.0799 11.9202H30.5299C30.7399 11.7302 30.9999 11.6202 31.2799 11.6202C31.4299 11.6202 31.5899 11.6502 31.7399 11.7202L34.6399 13.0102C34.9099 13.1302 35.1199 13.3502 35.2299 13.6402C35.2899 13.7902 35.3099 13.9502 35.2999 14.1102L34.8299 13.6402C34.5399 13.3502 34.0599 13.3502 33.7699 13.6402C33.4799 13.9302 33.4799 14.4102 33.7699 14.7002L34.2199 15.1502C34.0499 15.1502 33.8899 15.1302 33.7299 15.0602L30.8299 13.7702C30.6599 13.6902 30.5299 13.5702 30.4099 13.4202H31.0799Z" fill="#FFA400"/>
</g>
<defs>
<clipPath id="clip0_34_848">
<rect width="56" height="56" fill="white"/>
</clipPath>
</defs>
</svg>
