<svg width="56" height="56" viewBox="0 0 56 56" fill="none" xmlns="http://www.w3.org/2000/svg">
<g clip-path="url(#clip0_34_833)">
<path d="M56 0H0V56H56V0Z" fill="#FEEACD"/>
<path d="M15 31.8604H12.54C11.58 31.8604 10.8 32.6403 10.8 33.6003V38.2004C10.8 39.8404 12.13 41.1703 13.77 41.1703C15.41 41.1703 16.74 39.8404 16.74 38.2004V33.6003C16.74 32.6403 15.96 31.8604 15 31.8604ZM15.74 38.2004C15.74 39.2804 14.86 40.1703 13.77 40.1703C12.68 40.1703 11.8 39.2904 11.8 38.2004V33.6003C11.8 33.1903 12.13 32.8604 12.54 32.8604H15C15.41 32.8604 15.74 33.1903 15.74 33.6003V38.2004Z" fill="#FEEACD"/>
<path d="M43.74 31.8604H41.28C40.32 31.8604 39.54 32.6403 39.54 33.6003V38.2004C39.54 39.8404 40.87 41.1703 42.51 41.1703C44.15 41.1703 45.48 39.8404 45.48 38.2004V33.6003C45.48 32.6403 44.7 31.8604 43.74 31.8604ZM44.48 38.2004C44.48 39.2804 43.6 40.1703 42.51 40.1703C41.42 40.1703 40.54 39.2904 40.54 38.2004V33.6003C40.54 33.1903 40.87 32.8604 41.28 32.8604H43.74C44.15 32.8604 44.48 33.1903 44.48 33.6003V38.2004Z" fill="#FEEACD"/>
<path d="M23.5601 11.96H33.0301V14.5H36.0301V10.46C36.0301 9.62996 35.3601 8.95996 34.5301 8.95996H22.0601C21.2301 8.95996 20.5601 9.62996 20.5601 10.46V14.5H23.5601V11.96Z" fill="#FFA400"/>
<path d="M45.3402 35.0299V38.1199C45.3402 39.7599 44.0102 41.0899 42.3702 41.0899C40.7302 41.0899 39.4002 39.7599 39.4002 38.1199V35.0299H16.5902V38.1199C16.5902 39.7599 15.2602 41.0899 13.6202 41.0899C11.9802 41.0899 10.6502 39.7599 10.6502 38.1199V35.0299H7.10017C6.50017 35.0299 5.94017 34.8899 5.42017 34.6699V47.0399H50.5502V34.6699C50.0302 34.8899 49.4702 35.0299 48.8702 35.0299H45.3202H45.3402Z" fill="#FFA400"/>
<path d="M50.8501 15.5H5.1501C4.4301 15.5 3.8501 16.08 3.8501 16.8V30.76C3.8501 32.56 5.3201 34.03 7.1201 34.03H10.6701V33.52C10.6701 32.56 11.4501 31.78 12.4101 31.78H14.8701C15.8301 31.78 16.6101 32.56 16.6101 33.52V34.03H39.4201V33.52C39.4201 32.56 40.2001 31.78 41.1601 31.78H43.6201C44.5801 31.78 45.3601 32.56 45.3601 33.52V34.03H48.9101C50.7101 34.03 52.1801 32.56 52.1801 30.76V16.8C52.1801 16.08 51.6001 15.5 50.8801 15.5H50.8501ZM36.2201 20.65H20.3801C20.2401 20.65 20.1301 20.54 20.1301 20.4C20.1301 20.26 20.2401 20.15 20.3801 20.15H36.2201C36.3601 20.15 36.4701 20.26 36.4701 20.4C36.4701 20.54 36.3601 20.65 36.2201 20.65Z" fill="#FFA400"/>
<path d="M15.6002 38.1203V33.5203C15.6002 33.1103 15.2702 32.7803 14.8602 32.7803H12.4002C11.9902 32.7803 11.6602 33.1103 11.6602 33.5203V38.1203C11.6602 39.2003 12.5402 40.0903 13.6302 40.0903C14.7202 40.0903 15.6002 39.2103 15.6002 38.1203ZM13.0502 37.7503C13.0502 37.4303 13.3102 37.1703 13.6302 37.1703C13.9502 37.1703 14.2102 37.4303 14.2102 37.7503C14.2102 38.0703 13.9502 38.3303 13.6302 38.3303C13.3102 38.3303 13.0502 38.0703 13.0502 37.7503Z" fill="#FFA400"/>
<path d="M44.3401 38.1203V33.5203C44.3401 33.1103 44.0101 32.7803 43.6001 32.7803H41.1401C40.7301 32.7803 40.4001 33.1103 40.4001 33.5203V38.1203C40.4001 39.2003 41.2801 40.0903 42.3701 40.0903C43.4601 40.0903 44.3401 39.2103 44.3401 38.1203ZM41.7901 37.7503C41.7901 37.4303 42.0501 37.1703 42.3701 37.1703C42.6901 37.1703 42.9501 37.4303 42.9501 37.7503C42.9501 38.0703 42.6901 38.3303 42.3701 38.3303C42.0501 38.3303 41.7901 38.0703 41.7901 37.7503Z" fill="#FFA400"/>
</g>
<defs>
<clipPath id="clip0_34_833">
<rect width="56" height="56" fill="white"/>
</clipPath>
</defs>
</svg>
