<svg width="56" height="56" viewBox="0 0 56 56" fill="none" xmlns="http://www.w3.org/2000/svg">
<g clip-path="url(#clip0_34_880)">
<path d="M56 0H0V56H56V0Z" fill="#FEEACD"/>
<path d="M3.47998 34.2209H21.43V25.9209H3.47998V34.2209ZM13.49 28.3509H16.94V31.8009H13.49V28.3509ZM7.95998 28.3509H11.41V31.8009H7.95998V28.3509Z" fill="#FFA400"/>
<path d="M34.8599 34.2209H52.8099V25.9209H34.8599V34.2209ZM44.8699 28.3509H48.3199V31.8009H44.8699V28.3509ZM39.3499 28.3509H42.7999V31.8009H39.3499V28.3509Z" fill="#FFA400"/>
<path d="M3.47998 43.5002H21.43V35.2002H3.47998V43.5002ZM13.49 37.6302H16.94V41.0802H13.49V37.6302ZM7.95998 37.6302H11.41V41.0802H7.95998V37.6302Z" fill="#FFA400"/>
<path d="M34.4398 44.0107H21.8498C21.6952 44.0107 21.5698 44.1361 21.5698 44.2907V44.7407C21.5698 44.8954 21.6952 45.0207 21.8498 45.0207H34.4398C34.5945 45.0207 34.7198 44.8954 34.7198 44.7407V44.2907C34.7198 44.1361 34.5945 44.0107 34.4398 44.0107Z" fill="#FFA400"/>
<path d="M9.29992 15.2705C8.92992 15.2705 8.56992 15.4305 8.32992 15.7105L0.699916 24.2305C0.429916 24.5305 0.639916 25.0105 1.04992 25.0105H21.4299V20.4005L25.5599 15.2705H9.29992Z" fill="#FFA400"/>
<path d="M55.3 24.2305L47.67 15.7105C47.42 15.4305 47.07 15.2705 46.7 15.2705H30.49L34.86 20.4005V25.0105H54.95C55.35 25.0105 55.57 24.5305 55.3 24.2305Z" fill="#FFA400"/>
<path d="M34.8599 43.5002H52.8099V35.2002H34.8599V43.5002ZM44.8699 37.6302H48.3199V41.0802H44.8699V37.6302ZM39.3499 37.6302H42.7999V41.0802H39.3499V37.6302Z" fill="#FFA400"/>
<path d="M22.3899 43.5007H33.8999V31.7207H22.3899V43.5007ZM26.1899 37.3207C26.1899 36.2407 27.0699 35.3607 28.1499 35.3607C29.2299 35.3607 30.1099 36.2407 30.1099 37.3207V42.1107H26.1999V37.3207H26.1899Z" fill="#FFA400"/>
<path d="M33.8999 20.6902L27.9799 13.7402L22.3899 20.6902V30.6902H33.8999V20.6902ZM27.1799 26.0902H23.8899V24.2102C23.8899 23.3102 24.6299 22.5702 25.5299 22.5702C26.4299 22.5702 27.1699 23.3102 27.1699 24.2102V26.0902H27.1799ZM32.3999 26.0902H29.1099V24.2102C29.1099 23.3102 29.8499 22.5702 30.7499 22.5702C31.6499 22.5702 32.3899 23.3102 32.3899 24.2102V26.0902H32.3999Z" fill="#FFA400"/>
<path d="M43.36 11.5605C43.36 11.2405 43.0999 10.9805 42.7799 10.9805H40.7799C40.4599 10.9805 40.2 11.2405 40.2 11.5605V14.6205H43.36V11.5605Z" fill="#FFA400"/>
</g>
<defs>
<clipPath id="clip0_34_880">
<rect width="56" height="56" fill="white"/>
</clipPath>
</defs>
</svg>
