<svg width="56" height="56" viewBox="0 0 56 56" fill="none" xmlns="http://www.w3.org/2000/svg">
<g clip-path="url(#clip0_34_868)">
<path d="M56 0H0V56H56V0Z" fill="#FEEACD"/>
<path d="M35.3102 16.77C36.6302 16.61 37.5702 14.14 37.4502 12.64C37.3202 11.14 36.1502 10.04 34.8402 10.2C33.5302 10.36 32.5602 11.71 32.6902 13.21C32.8202 14.71 34.0002 16.93 35.3202 16.77H35.3102Z" fill="#FFA400"/>
<path d="M49.5 24.7905C50.59 24.7105 51.43 23.5205 51.38 22.2805C51.33 21.0405 50.41 20.1005 49.32 20.1805C48.23 20.2605 47.39 21.3305 47.45 22.5805C47.5 23.8205 48.41 24.8705 49.5 24.7905Z" fill="#FFA400"/>
<path d="M55.63 35.8198C55.09 32.5198 54.24 29.2898 53.27 26.0898C53.12 25.5798 52.67 25.2398 52.17 25.1798H52.15C52.06 25.1698 51.96 25.1698 51.87 25.1798H46.9C46.39 25.1798 45.88 25.4498 45.65 26.1198L44.56 29.7998C44.12 30.1098 43.37 30.6198 42.82 30.9998C42.82 29.5098 42.82 26.2698 42.82 26.2698C42.82 26.1498 42.78 26.0098 42.73 25.8998L39.67 18.7198C39.45 18.2398 39.08 18.0098 38.7 17.9498L38.64 17.9398C38.55 17.9398 38.47 17.9398 38.38 17.9398H32.4C31.75 17.8398 31.11 18.2498 30.95 18.9098C30.41 21.0798 29.92 23.2598 29.4 25.4298C29.21 26.3298 29.04 27.2598 28.88 28.1998C28.36 25.0798 27.58 21.9898 26.86 18.9198C26.68 18.2798 26.22 17.9798 25.73 17.9398H19.28C19.21 17.9398 19.15 17.9398 19.08 17.9398H19.06C18.64 17.9698 18.24 18.2098 18 18.7298L15.02 25.8998C14.97 26.0098 14.93 26.1298 14.93 26.2598C14.93 26.2598 14.93 28.9198 14.93 30.6698L13.77 29.3998L11.95 25.8998C11.67 25.4098 11.26 25.2098 10.85 25.1998L5.82004 25.1898C5.29004 25.1198 4.72004 25.3498 4.45004 26.0398L2.62004 31.2298C2.12004 31.8998 0.460038 34.1398 0.460038 34.1398C-0.0199615 34.7698 0.870039 35.5698 1.45004 35.0198L4.25004 32.3598C4.33004 32.2898 4.38004 32.1698 4.42004 32.0798L5.19004 30.4698L4.93004 34.1398L3.64004 44.6698C3.49004 45.8898 5.25004 46.3098 5.67004 45.1398C5.67004 45.1398 7.04004 41.2198 8.10004 38.2098L10.44 45.1298C10.84 46.2998 12.6 45.9098 12.47 44.6798C12.47 44.6798 11.83 38.9798 11.47 35.7998L11.07 29.1198C11.57 29.7998 12.08 30.4998 12.08 30.4998C12.13 30.5598 12.2 30.6798 12.26 30.7198L14.83 32.5598C14.95 32.6398 15.07 32.6798 15.18 32.6898C15.55 32.9398 16.16 32.8198 16.23 32.2398L16.87 26.6298L18.69 23.0498L18.04 32.8398L16.93 44.6998C16.83 45.9698 18.64 46.2898 18.98 45.0598C18.98 45.0598 21.04 37.0298 22.09 32.9398H22.47L25.58 45.0598C25.91 46.2898 27.73 45.9698 27.63 44.6998C27.63 44.6998 26.93 37.2098 26.52 32.8698L26.1 25.2298C26.51 26.5298 26.91 27.8298 27.26 29.1398C27.56 30.2098 27.86 31.2698 28.18 32.3398C28.26 32.5998 28.49 32.7698 28.75 32.7998C29.08 32.8598 29.4 32.6598 29.5 32.3398C29.82 31.2698 30.12 30.2098 30.42 29.1398C30.73 28.0798 30.99 26.9998 31.35 25.9498C31.43 25.7198 31.5 25.4798 31.58 25.2498L31.16 32.8698L30.05 44.6998C29.95 45.9698 31.76 46.2898 32.1 45.0598C32.1 45.0598 34.16 37.0298 35.21 32.9398H35.59L38.7 45.0598C39.03 46.2898 40.85 45.9698 40.75 44.6998C40.75 44.6998 40.04 37.1798 39.64 32.8398L39 23.1498L40.82 26.6298L41.46 32.2298C41.5 32.5598 41.78 32.8198 42.12 32.8198C42.26 32.8198 42.38 32.7698 42.49 32.6898C42.57 32.6898 42.66 32.6698 42.75 32.6298L45.86 31.2898C46.02 31.2198 46.16 31.0898 46.24 30.9198L46.31 30.7698L46.57 30.2198L46.24 35.7898L45.24 44.6698C45.1 45.8998 46.87 46.2998 47.27 45.1198C47.27 45.1198 48.6 41.1798 49.63 38.1398L52.04 45.1298C52.44 46.2998 54.21 45.8998 54.07 44.6698L52.77 33.7298C52.76 33.6698 52.74 33.5998 52.73 33.5398L52.58 31.4298C52.9 32.2298 53.2 33.0298 53.47 33.8498C53.74 34.6298 54.02 35.4098 54.31 36.1798C54.42 36.4698 54.73 36.6598 55.05 36.5998C55.41 36.5398 55.65 36.1898 55.59 35.8298L55.63 35.8198Z" fill="#FFA400"/>
<path d="M22.48 16.7702C23.8 16.9302 24.98 14.7202 25.11 13.2102C25.24 11.7102 24.27 10.3602 22.96 10.2002C21.64 10.0402 20.47 11.1302 20.35 12.6402C20.22 14.1402 21.17 16.6102 22.49 16.7702H22.48Z" fill="#FFA400"/>
<path d="M8.30007 24.7905C9.39007 24.8705 10.3001 23.8205 10.3501 22.5805C10.4001 21.3405 9.56007 20.2705 8.48007 20.1805C7.39007 20.1005 6.47007 21.0405 6.42007 22.2805C6.37007 23.5205 7.22007 24.7105 8.30007 24.7905Z" fill="#FFA400"/>
</g>
<defs>
<clipPath id="clip0_34_868">
<rect width="56" height="56" fill="white"/>
</clipPath>
</defs>
</svg>
