<svg width="56" height="56" viewBox="0 0 56 56" fill="none" xmlns="http://www.w3.org/2000/svg">
<g clip-path="url(#clip0_34_915)">
<path d="M56 0H0V56H56V0Z" fill="#FEEACD"/>
<path d="M36.2801 48.6602H19.5501C18.4601 48.6602 17.5801 49.5402 17.5801 50.6302V54.3002H38.2501V50.6302C38.2501 49.5402 37.3701 48.6602 36.2801 48.6602Z" fill="#FFA400"/>
<path d="M27.92 15.6502C31.21 15.6502 33.87 12.9802 33.87 9.7002C33.87 7.5702 32.75 5.7102 31.07 4.6602C30.96 3.0102 29.6 1.7002 27.92 1.7002C26.24 1.7002 24.88 3.0102 24.77 4.6602C23.09 5.7102 21.97 7.5802 21.97 9.7002C21.97 12.9902 24.64 15.6502 27.92 15.6502ZM27.92 5.8702C30.03 5.8702 31.74 7.5802 31.74 9.6902C31.74 11.8002 30.03 13.5102 27.92 13.5102C25.81 13.5102 24.1 11.8002 24.1 9.6902C24.1 7.5802 25.81 5.8702 27.92 5.8702Z" fill="#FFA400"/>
<path d="M27.92 12.4C29.41 12.4 30.62 11.19 30.62 9.7C30.62 8.21 29.41 7 27.92 7C26.43 7 25.22 8.21 25.22 9.7C25.22 11.19 26.43 12.4 27.92 12.4Z" fill="#FFA400"/>
<path d="M34.43 41.6897L33.88 40.9497C31.78 38.1097 30.56 34.7297 30.36 31.2097L29.52 16.4697C29.02 16.5897 28.49 16.6597 27.95 16.6597C27.41 16.6597 26.89 16.5997 26.39 16.4897L25.81 31.1797C25.67 34.7497 24.48 38.1897 22.38 41.0797L21.72 41.9897C21.35 42.4997 21.31 43.1697 21.61 43.7197L22.95 46.1797V47.8097L33.25 47.7597V46.1297L34.58 43.3697C34.84 42.8297 34.78 42.1897 34.42 41.6997L34.43 41.6897Z" fill="#FFA400"/>
<path d="M54.0401 34.0801H41.5301C41.0201 34.0801 40.6201 34.5301 40.6901 35.0301C41.1601 38.5301 44.1501 41.2301 47.7801 41.2301C51.4101 41.2301 54.4101 38.5301 54.8701 35.0301C54.9401 34.5301 54.5401 34.0801 54.0301 34.0801H54.0401Z" fill="#FFA400"/>
<path d="M47.78 19.5205C47.36 19.5205 46.98 19.7905 46.84 20.1905L42.3 32.9405H44.42L47.78 23.5105L51.14 32.9405H53.26L48.7201 20.1905C48.5801 19.7905 48.2 19.5205 47.78 19.5205Z" fill="#FFA400"/>
<path d="M14.47 34.0801H1.96004C1.45004 34.0801 1.05004 34.5301 1.12004 35.0301C1.59004 38.5301 4.58004 41.2301 8.21004 41.2301C11.84 41.2301 14.84 38.5301 15.3 35.0301C15.37 34.5301 14.97 34.0801 14.46 34.0801H14.47Z" fill="#FFA400"/>
<path d="M8.21999 19.5205C7.79999 19.5205 7.41999 19.7905 7.27999 20.1905L2.73999 32.9405H4.85999L8.21999 23.5105L11.58 32.9405H13.7L9.15999 20.1905C9.01999 19.7905 8.63999 19.5305 8.21999 19.5305V19.5205Z" fill="#FFA400"/>
<path d="M4.33004 17.3903C5.14004 17.7903 6.52004 17.9803 8.13004 17.9803C10.18 17.9803 12.59 17.6703 14.64 17.0603C17.32 16.2703 19.68 15.1303 21.65 13.6703L22 13.4103L21.79 13.0303C21.45 12.4103 21.21 11.7403 21.07 11.0303L20.93 10.3203L20.32 10.7003C18.57 11.7803 15.2 13.6403 12.24 14.0203C9.70004 14.3403 7.65004 14.1403 5.97004 13.4003C5.01004 12.9803 4.31004 13.1003 3.89004 13.2803C3.42004 13.4803 3.05004 13.8603 2.87004 14.3403C2.51004 15.2903 2.82004 16.6503 4.33004 17.3903Z" fill="#FFA400"/>
<path d="M34.07 13.6002C36.07 15.0902 38.46 16.2602 41.19 17.0602C43.24 17.6702 45.65 17.9802 47.7 17.9802C49.31 17.9802 50.69 17.7902 51.5 17.3902C53.01 16.6502 53.32 15.2902 52.96 14.3402C52.78 13.8602 52.42 13.4802 51.94 13.2802C51.52 13.1102 50.82 12.9802 49.86 13.4002C48.18 14.1402 46.13 14.3402 43.59 14.0202C40.58 13.6402 37.16 11.7302 35.38 10.6302L34.76 10.2402L34.63 10.9602C34.5 11.6702 34.26 12.3402 33.93 12.9602L33.73 13.3402L34.07 13.6002Z" fill="#FFA400"/>
</g>
<defs>
<clipPath id="clip0_34_915">
<rect width="56" height="56" fill="white"/>
</clipPath>
</defs>
</svg>
