<svg width="56" height="56" viewBox="0 0 56 56" fill="none" xmlns="http://www.w3.org/2000/svg">
<path d="M56 0H0V56H56V0Z" fill="#FEEACD"/>
<path d="M28.37 12.1094C24.91 12.6794 21.96 14.7494 20.21 17.6394C21.8 18.7794 23.83 19.5994 26.07 20.0594C26.4 16.7294 27.18 13.6994 28.37 12.1094Z" fill="#FFA400"/>
<path d="M25.88 23.7498C25.88 22.8498 25.92 21.9498 25.98 21.0498C23.59 20.5798 21.43 19.7098 19.72 18.5098C18.93 20.0898 18.48 21.8598 18.48 23.7498C18.48 25.6398 18.97 27.5498 19.81 29.1798C21.54 28.0698 23.68 27.2698 26.01 26.8598C25.93 25.8398 25.88 24.7898 25.88 23.7598V23.7498Z" fill="#FFA400"/>
<path d="M8.17993 4.91957V51.0896C8.17993 52.3896 9.23993 53.4496 10.5399 53.4496H12.0799V2.55957H10.5399C9.23993 2.55957 8.17993 3.61957 8.17993 4.91957Z" fill="#FFA400"/>
<path d="M26.9599 21.2299C26.9099 22.0299 26.8799 22.8799 26.8799 23.7499C26.8799 24.7799 26.9199 25.7599 26.9999 26.6899C27.9199 26.5699 28.8699 26.4999 29.8299 26.4999C31.1099 26.4999 32.3599 26.6199 33.5699 26.8299C33.6499 25.8599 33.6999 24.8299 33.6999 23.7399C33.6999 22.8499 33.6699 21.9899 33.6099 21.1699C32.4899 21.3499 31.3299 21.4499 30.1499 21.4499C29.0599 21.4499 27.9999 21.3699 26.9599 21.2099V21.2299Z" fill="#FFA400"/>
<path d="M30.16 20.4595C31.31 20.4595 32.44 20.3595 33.53 20.1795C33.05 15.1895 31.6101 11.9395 30.2901 11.9395C28.9701 11.9395 27.52 15.2095 27.05 20.2295C28.06 20.3795 29.1 20.4695 30.16 20.4695V20.4595Z" fill="#FFA400"/>
<path d="M20.3098 30.0396C22.0798 32.8296 24.9798 34.8296 28.3598 35.3896C27.2198 33.8696 26.4598 31.0196 26.1098 27.8496C23.9198 28.2496 21.9198 28.9996 20.3098 30.0396Z" fill="#FFA400"/>
<path d="M45.4699 2.55957H13.1899V53.4396H45.4599C46.7599 53.4396 47.8199 52.3796 47.8199 51.0796V4.91957C47.8199 3.61957 46.7599 2.55957 45.4599 2.55957H45.4699ZM34.9899 48.4696H25.5799C25.3299 48.4696 25.1199 48.2596 25.1199 48.0096C25.1199 47.7596 25.3299 47.5496 25.5799 47.5496H34.9899C35.2399 47.5496 35.4499 47.7596 35.4499 48.0096C35.4499 48.2596 35.2399 48.4696 34.9899 48.4696ZM40.9399 44.9896C40.9399 45.1996 40.7699 45.3796 40.5499 45.3796H20.0099C19.7999 45.3796 19.6199 45.2096 19.6199 44.9896V43.9096C19.6199 43.6996 19.7899 43.5196 20.0099 43.5196H40.5499C40.7599 43.5196 40.9399 43.6896 40.9399 43.9096V44.9896ZM30.2899 36.5596C23.2299 36.5596 17.4799 30.8096 17.4799 23.7496C17.4799 16.6896 23.2299 10.9396 30.2899 10.9396C37.3499 10.9396 43.0999 16.6896 43.0999 23.7496C43.0999 30.8096 37.3499 36.5596 30.2899 36.5596Z" fill="#FFA400"/>
<path d="M32.21 12.1094C33.39 13.6894 34.17 16.6994 34.5 19.9994C36.72 19.5194 38.71 18.6794 40.27 17.5294L40.49 17.8194C38.75 14.8394 35.75 12.6894 32.21 12.1094Z" fill="#FFA400"/>
<path d="M34.45 28.04C34.09 31.13 33.34 33.9 32.22 35.4C35.7 34.83 38.67 32.73 40.42 29.82L39.95 30.45C38.46 29.35 36.56 28.53 34.46 28.04H34.45Z" fill="#FFA400"/>
<path d="M34.7001 23.7499C34.7001 24.8399 34.65 25.9499 34.55 27.0299C36.83 27.5499 38.9001 28.4299 40.5201 29.6299C41.5201 27.8999 42.1 25.8899 42.1 23.7499C42.1 21.8199 41.62 19.9899 40.8 18.3799C39.12 19.6099 36.97 20.5099 34.6 21.0099C34.67 21.9199 34.7001 22.8399 34.7001 23.7499Z" fill="#FFA400"/>
<path d="M29.8298 27.5098C28.8998 27.5098 27.9898 27.5698 27.0898 27.6898C27.6098 32.4698 29.0098 35.5598 30.2898 35.5598C31.5698 35.5598 32.9398 32.5298 33.4698 27.8398C32.2998 27.6298 31.0698 27.5098 29.8198 27.5098H29.8298Z" fill="#FFA400"/>
</svg>
