<svg width="56" height="56" viewBox="0 0 56 56" fill="none" xmlns="http://www.w3.org/2000/svg">
<g clip-path="url(#clip0_34_819)">
<path d="M56 0H0V56H56V0Z" fill="#FEEACD"/>
<path d="M22.46 49.4005C22.46 48.8905 22.05 48.4805 21.54 48.4805H12.95C12.44 48.4805 12.03 48.8905 12.03 49.4005C12.03 49.9105 12.44 50.3205 12.95 50.3205H21.54C22.05 50.3205 22.46 49.9105 22.46 49.4005Z" fill="#FFA400"/>
<path d="M9.68002 48.5205H8.69002C8.18002 48.5205 7.77002 48.9305 7.77002 49.4405C7.77002 49.9505 8.18002 50.3605 8.69002 50.3605H9.68002C10.19 50.3605 10.6 49.9505 10.6 49.4405C10.6 48.9305 10.19 48.5205 9.68002 48.5205Z" fill="#FFA400"/>
<path d="M5.38998 48.5205H4.39998C3.88998 48.5205 3.47998 48.9305 3.47998 49.4405C3.47998 49.9505 3.88998 50.3605 4.39998 50.3605H5.38998C5.89998 50.3605 6.30998 49.9505 6.30998 49.4405C6.30998 48.9305 5.89998 48.5205 5.38998 48.5205Z" fill="#FFA400"/>
<path d="M27.6299 53.4805C27.6299 52.9705 27.2199 52.5605 26.7099 52.5605H18.12C17.61 52.5605 17.2 52.9705 17.2 53.4805C17.2 53.9905 17.61 54.4005 18.12 54.4005H26.7099C27.2199 54.4005 27.6299 53.9905 27.6299 53.4805Z" fill="#FFA400"/>
<path d="M14.96 52.6006H13.97C13.46 52.6006 13.05 53.0106 13.05 53.5206C13.05 54.0306 13.46 54.4406 13.97 54.4406H14.96C15.47 54.4406 15.88 54.0306 15.88 53.5206C15.88 53.0106 15.47 52.6006 14.96 52.6006Z" fill="#FFA400"/>
<path d="M8.44988 9.46017C10.6299 11.1402 15.0499 12.2702 16.4599 10.3102C17.8699 8.35017 15.7199 4.04017 13.5499 2.37017C11.3699 0.690174 8.46988 0.920174 7.05988 2.88017C5.64988 4.84017 6.27988 7.79017 8.44988 9.47017V9.46017Z" fill="#FFA400"/>
<path d="M51.61 28.9698L41.58 15.4098C40.24 14.0698 38.06 14.0698 36.71 15.4098L29.72 20.5498L28.87 19.6998L28.53 19.3598L26.89 17.7198C26.89 17.7198 26.9 17.7198 26.91 17.7198L26.52 16.9298L27.43 16.4098C27.43 16.4098 30.34 15.4698 30.68 14.6998C31.29 13.2998 31.53 11.7798 31.53 11.7798C31.53 11.7798 32.7 5.39978 32.56 4.63978C32.42 3.87978 32.03 1.95978 30.37 2.11978C28.71 2.27978 28.5 4.65978 28.46 6.66978C28.38 7.85978 27.67 9.63978 27.24 10.6298C27.04 11.0898 26.61 11.3998 26.12 11.4598C24.7 11.6298 21.72 11.9498 20.25 11.9498C18.13 11.9498 16.17 12.0898 16.09 12.0898C15.46 12.1398 14.85 12.3498 14.34 12.7198C13.73 13.1498 7.54004 23.7398 7.44004 24.4298C7.39004 24.7898 7.49004 25.1498 7.73004 25.4298C8.97004 26.8898 13.71 32.8198 14.85 33.9698C15.3 34.4198 15.84 34.7798 16.43 34.8298C16.93 34.8698 17.34 34.6598 17.79 34.2098C18.7 33.2998 17.58 31.7798 17.58 31.7798L13.45 24.3498L15.95 19.0098L29.76 34.2198L32.17 36.6298V40.7598L33.39 51.7298C33.72 53.7098 34.17 54.7498 35.62 54.7498C36.98 54.7498 37.52 52.9998 37.68 51.5098L39.06 35.1998C39.06 34.2898 39.1 33.4198 38.65 32.6098L37.71 29.6098L30.94 30.6798L36.72 26.4998L39.13 22.6998L46.31 29.7898C46.98 30.2998 48.43 31.7898 49.17 32.2698C50.22 32.9298 51.37 33.3998 52 32.8498C52.96 31.9998 52.36 30.2398 51.59 28.9698H51.61Z" fill="#FFA400"/>
</g>
<defs>
<clipPath id="clip0_34_819">
<rect width="56" height="56" fill="white"/>
</clipPath>
</defs>
</svg>
