<svg width="56" height="56" viewBox="0 0 56 56" fill="none" xmlns="http://www.w3.org/2000/svg">
<g clip-path="url(#clip0_34_774)">
<path d="M48.3701 19.6899L55.7801 19.9599L54.5901 40.6299L47.2101 40.2899C46.7801 40.2699 46.4401 39.8999 46.4701 39.4599L47.5701 20.4199C47.5901 19.9999 47.9501 19.6699 48.3801 19.6799L48.3701 19.6899Z" fill="#FFA400"/>
<path d="M43.44 21.54L48.87 21.84L48.2 37.88L42.48 37.58L43.44 21.54Z" stroke="#FFA400" stroke-width="1.5" stroke-miterlimit="10"/>
<path d="M42.55 36.4001L36.28 36.3701" stroke="#FFA400" stroke-width="1.5" stroke-miterlimit="10"/>
<path d="M31.7399 37.9699L34.4599 39.5099L40.0299 30.0799L40.3599 29.4599C40.3599 29.4599 38.1699 27.8599 37.6499 27.4799C37.1299 27.6299 33.7099 28.6699 31.5599 27.8499C29.4099 27.0299 28.8899 24.2099 28.8899 24.2099L26.2899 23.9099C26.2899 23.9099 25.9899 24.4999 25.3199 25.9199C24.6499 27.3399 22.5699 27.7799 21.8299 27.6299C21.0899 27.4799 19.8999 27.3299 19.8999 27.3299L22.1299 20.1299L30.3699 15.5599C31.1399 15.1299 32.0899 15.1999 32.7899 15.7299L40.8499 21.8399L43.4699 22.0299" stroke="#FFA400" stroke-width="1.5" stroke-miterlimit="10"/>
<path d="M13.4399 34.8203L16.8499 35.0003L18.8499 35.8303" stroke="#FFA400" stroke-width="1.5" stroke-miterlimit="10"/>
<path d="M28 16.7901L26.25 15.5001C25.44 14.9001 24.34 14.9201 23.55 15.5501L16.65 21.0301L14.72 20.9401" stroke="#FFA400" stroke-width="1.5" stroke-miterlimit="10"/>
<path d="M33.3401 34.61L27.8001 31.58C25.3001 30.21 22.1701 31.08 20.7301 33.54L18.3301 37.66L26.9501 41.19C28.5201 41.83 30.3301 41.12 31.0401 39.58L33.3301 34.62L33.3401 34.61Z" stroke="#FFA400" stroke-width="1.5" stroke-miterlimit="10"/>
<path d="M14.4101 19.5296L8.17005 19.3096L7.43005 36.2396L13.3201 36.3996L14.4101 19.5296Z" stroke="#FFA400" stroke-width="1.5" stroke-miterlimit="10"/>
<path d="M9.07999 18.1204L1.47999 17.6104L-0.0100098 37.7404L7.70999 38.1304C8.28999 38.1604 8.78999 37.7204 8.82999 37.1404L10.07 19.2704C10.11 18.6804 9.66999 18.1704 9.07999 18.1304V18.1204ZM4.97999 36.1804C3.94999 36.1804 3.11999 35.3504 3.11999 34.3204C3.11999 33.2904 3.94999 32.4604 4.97999 32.4604C6.00999 32.4604 6.83999 33.2904 6.83999 34.3204C6.83999 35.3504 6.00999 36.1804 4.97999 36.1804Z" fill="#FFA400"/>
<path d="M28.02 9.25V4.75" stroke="#FFA400" stroke-linecap="round" stroke-linejoin="round"/>
<path d="M30.4099 11.6399L33.0799 7.41992" stroke="#FFA400" stroke-linecap="round" stroke-linejoin="round"/>
<path d="M25.63 11.6399L22.96 7.41992" stroke="#FFA400" stroke-linecap="round" stroke-linejoin="round"/>
</g>
<defs>
<clipPath id="clip0_34_774">
<rect width="55.77" height="38.17" fill="white" transform="translate(0 4)"/>
</clipPath>
</defs>
</svg>
