<svg width="56" height="56" viewBox="0 0 56 56" fill="none" xmlns="http://www.w3.org/2000/svg">
<g clip-path="url(#clip0_34_741)">
<path d="M56 0H0V56H56V0Z" fill="#FEEACD"/>
<path d="M54.5101 54.0799H2.06006V1.60986C2.06006 1.32986 1.84006 1.10986 1.56006 1.10986C1.28006 1.10986 1.06006 1.32986 1.06006 1.60986V54.5899C1.06006 54.8699 1.28006 55.0899 1.56006 55.0899H54.5001C54.7801 55.0899 55.0001 54.8699 55.0001 54.5899C55.0001 54.3099 54.7801 54.0899 54.5001 54.0899L54.5101 54.0799Z" fill="#FFA400"/>
<path d="M18.5501 44.8896H7.3501C7.07396 44.8896 6.8501 45.1135 6.8501 45.3896V51.3896C6.8501 51.6658 7.07396 51.8896 7.3501 51.8896H18.5501C18.8262 51.8896 19.0501 51.6658 19.0501 51.3896V45.3896C19.0501 45.1135 18.8262 44.8896 18.5501 44.8896Z" fill="#FFA400"/>
<path d="M33.43 37.1499H22.23C21.9538 37.1499 21.73 37.3738 21.73 37.6499V51.0399C21.73 51.316 21.9538 51.5399 22.23 51.5399H33.43C33.7061 51.5399 33.93 51.316 33.93 51.0399V37.6499C33.93 37.3738 33.7061 37.1499 33.43 37.1499Z" fill="#FFA400"/>
<path d="M48.2901 24.5601H37.0901C36.8139 24.5601 36.5901 24.7839 36.5901 25.0601V51.3801C36.5901 51.6562 36.8139 51.8801 37.0901 51.8801H48.2901C48.5662 51.8801 48.7901 51.6562 48.7901 51.3801V25.0601C48.7901 24.7839 48.5662 24.5601 48.2901 24.5601Z" fill="#FFA400"/>
<path d="M42.47 10.25C42.1 10.3 41.77 10.4 41.52 10.59C41.18 10.85 41.01 11.21 41.01 11.65C41.01 12.01 41.11 12.3 41.32 12.53C41.52 12.75 41.84 12.92 42.27 13.03L42.47 13.08V10.26V10.25Z" fill="#FFA400"/>
<path d="M44.74 15.7899C44.74 15.0799 44.32 14.6299 43.49 14.4299L43.26 14.3799V17.1899C43.63 17.1399 43.97 17.0399 44.21 16.8499C44.56 16.5799 44.74 16.2299 44.74 15.7899Z" fill="#FFA400"/>
<path d="M42.8201 22.92C47.9001 22.92 52.0101 18.81 52.0101 13.73C52.0101 8.65004 47.9001 4.54004 42.8201 4.54004C37.7401 4.54004 33.6301 8.65004 33.6301 13.73C33.6301 18.81 37.7401 22.92 42.8201 22.92ZM42.0301 14.09C41.3101 13.93 40.7701 13.64 40.4001 13.24C40.0301 12.84 39.8401 12.32 39.8401 11.69C39.8401 11.18 39.9701 10.74 40.2201 10.36C40.4701 9.98004 40.8301 9.68004 41.2901 9.47004C41.6401 9.31004 42.0401 9.23004 42.4701 9.19004V8.11004H43.2501V9.19004C43.6601 9.23004 44.0401 9.30004 44.3601 9.45004C44.7801 9.65004 45.1101 9.93004 45.3501 10.3C45.5901 10.67 45.7301 11.11 45.7601 11.62H44.5701C44.5501 11.16 44.3801 10.81 44.0901 10.57C43.8701 10.39 43.5801 10.3 43.2501 10.25V13.26L43.7301 13.37C44.4601 13.53 45.0101 13.81 45.3701 14.2C45.7301 14.59 45.9101 15.09 45.9101 15.7C45.9101 16.23 45.7801 16.69 45.5201 17.08C45.2601 17.47 44.9001 17.77 44.4301 17.99C44.0801 18.15 43.6801 18.22 43.2501 18.27V19.35H42.4701V18.28C42.0101 18.25 41.5801 18.17 41.2201 18.01C40.7701 17.81 40.4101 17.52 40.1601 17.15C39.9001 16.78 39.7601 16.34 39.7301 15.85H40.9501C40.9501 16.28 41.1301 16.63 41.4601 16.88C41.7201 17.08 42.0801 17.18 42.4801 17.22V14.21L42.0401 14.11L42.0301 14.09Z" fill="#FFA400"/>
<path d="M8.52004 40.5098C8.62004 40.5098 8.73004 40.4898 8.83004 40.4598C16.64 37.8898 23.8 33.1198 29.21 26.9198L28.72 29.9198C28.63 30.4598 29 30.9798 29.55 31.0698C29.6 31.0698 29.66 31.0798 29.71 31.0798C30.19 31.0798 30.62 30.7298 30.7 30.2398L31.77 23.6898C31.83 23.3398 31.7 22.9898 31.43 22.7698C31.16 22.5398 30.8 22.4698 30.46 22.5798L24.55 24.5698C24.03 24.7498 23.75 25.3098 23.92 25.8398C24.1 26.3598 24.66 26.6498 25.19 26.4698L27.69 25.6298C22.51 31.5598 15.67 36.1198 8.21004 38.5698C7.69004 38.7398 7.40004 39.3098 7.57004 39.8298C7.71004 40.2498 8.10004 40.5198 8.52004 40.5198V40.5098Z" fill="#FFA400"/>
</g>
<defs>
<clipPath id="clip0_34_741">
<rect width="56" height="56" fill="white"/>
</clipPath>
</defs>
</svg>
