<svg width="56" height="56" viewBox="0 0 56 56" fill="none" xmlns="http://www.w3.org/2000/svg">
<g clip-path="url(#clip0_34_758)">
<path d="M38.0399 0H17.9499C14.7499 0 12.1499 2.6 12.1499 5.8V50.21C12.1499 53.41 14.7499 56.01 17.9499 56.01H38.0399C41.2399 56.01 43.8399 53.41 43.8399 50.21V5.8C43.8399 2.6 41.2399 0 38.0399 0ZM41.7799 50.21C41.7799 52.27 40.1099 53.94 38.0499 53.94H17.9599C15.8999 53.94 14.2299 52.27 14.2299 50.21V5.8C14.2299 3.74 15.8999 2.07 17.9599 2.07H38.0499C40.1099 2.07 41.7799 3.74 41.7799 5.8V50.21Z" fill="#FFA400"/>
<path d="M37.5 3.45996H18.5C16.86 3.45996 15.52 4.79996 15.52 6.43996V49.57C15.52 51.21 16.86 52.55 18.5 52.55H37.5C39.14 52.55 40.48 51.21 40.48 49.57V6.43996C40.48 4.79996 39.14 3.45996 37.5 3.45996ZM39.96 49.57C39.96 50.93 38.85 52.03 37.5 52.03H18.5C17.14 52.03 16.04 50.92 16.04 49.57V6.43996C16.04 5.07996 17.15 3.97996 18.5 3.97996H37.5C38.86 3.97996 39.96 5.08996 39.96 6.43996V49.57Z" fill="#FFA400"/>
<path d="M23.82 8.57021H32.6C33.46 8.57021 34.15 7.88022 34.15 7.02022C34.15 6.16022 33.46 5.47021 32.6 5.47021H23.82C22.96 5.47021 22.27 6.16022 22.27 7.02022C22.27 7.88022 22.96 8.57021 23.82 8.57021Z" fill="#FFA400"/>
<path d="M33.5398 49.8398H22.5998C22.3098 49.8398 22.0798 50.0698 22.0798 50.3598C22.0798 50.6498 22.3098 50.8798 22.5998 50.8798H33.5398C33.8298 50.8798 34.0598 50.6498 34.0598 50.3598C34.0598 50.0698 33.8298 49.8398 33.5398 49.8398Z" fill="#FFA400"/>
<path d="M33.6399 33.4C32.9399 32.57 31.8099 32.19 30.6399 32.58C29.8599 32.84 29.5999 33.44 28.6499 33.03C27.3599 32.48 26.1099 31.23 25.5499 30.11C25.2599 29.55 24.8599 28.32 24.9499 27.72C25.0299 27.24 25.7699 27.06 26.1799 26.78C26.9799 26.23 27.2999 25.39 27.0099 24.54C26.8399 24.05 25.7899 22.7 25.3899 22.24C23.8899 20.51 21.8299 21.65 20.2699 22.63C18.7899 23.56 18.8599 24.76 19.0499 26.17C19.7099 31.24 23.2399 35.87 28.3699 38.5C29.4699 39.06 30.3599 39.47 31.6999 39.15C32.3899 38.98 34.3399 37.98 34.7899 37.51C35.0499 37.24 35.2699 36.77 35.3099 36.43C35.3199 36.33 35.3199 36.16 35.3099 36.06C35.2399 35.41 34.1199 33.96 33.6399 33.39V33.4Z" fill="#FFA400"/>
<path d="M29.58 21.7596C29.3 21.6996 29.03 21.8796 28.96 22.1496C28.9 22.4296 29.07 22.6996 29.35 22.7696C31.67 23.2796 33.61 24.6096 34.66 26.4096C35.51 27.8696 35.71 29.5496 35.23 31.1296C35.15 31.3996 35.3 31.6896 35.57 31.7796C35.62 31.7996 35.67 31.7996 35.72 31.7996C35.94 31.7996 36.15 31.6596 36.21 31.4396C36.78 29.5796 36.55 27.6096 35.55 25.8996C34.35 23.8496 32.17 22.3396 29.57 21.7696L29.58 21.7596Z" fill="#FFA400"/>
<path d="M32.7799 30.13C32.8298 30.15 32.8799 30.15 32.9299 30.15C33.1499 30.15 33.3598 30.01 33.4198 29.79C33.7298 28.79 33.5999 27.73 33.0699 26.81C32.4299 25.72 31.2799 24.92 29.9099 24.62C29.6299 24.56 29.3599 24.74 29.2899 25.01C29.2299 25.29 29.3999 25.56 29.6799 25.63C30.7699 25.87 31.6798 26.49 32.1698 27.33C32.5598 28 32.6499 28.76 32.4299 29.48C32.3499 29.75 32.4999 30.04 32.7699 30.13H32.7799Z" fill="#FFA400"/>
</g>
<defs>
<clipPath id="clip0_34_758">
<rect width="56" height="56.01" fill="white"/>
</clipPath>
</defs>
</svg>
